<?xml version="1.0" encoding="UTF-8"?>
<!DOCTYPE svg PUBLIC "-//W3C//DTD SVG 1.1//EN"
    "http://www.w3.org/Graphics/SVG/1.1/DTD/svg11.dtd">
<svg xmlns="http://www.w3.org/2000/svg" xmlns:xlink="http://www.w3.org/1999/xlink" version="1.1" width="399.99999999999994" height="450.1819937062935" font-size="1" viewBox="0 0 400 450"><g><g fill="rgb(0,0,0)" fill-opacity="0.0"><g stroke="rgb(0,0,0)" stroke-opacity="1.0" stroke-width="1.0e-2" stroke-linecap="butt" stroke-linejoin="miter" font-size="1.0em" stroke-miterlimit="10.0"><g transform="matrix(1.751415032212734e-2,0.0,0.0,1.751415032212734e-2,199.99999999999997,450.1819937062935)"><g fill="rgb(0,0,0)" fill-opacity="1.0" stroke-width="1.0e-2"><g fill="rgb(0,0,0)" fill-opacity="1.0"><g fill="rgb(0,0,0)" fill-opacity="1.0"><path d="M -8627.563560000002,-16950.633153519997 l -82.35358209226433,-87.34924164852418 l -1159.0996295963214,1142.3065085163016 l 115.29501492917188,122.28893830793459 l 1208.5117788516782,-1089.8969635271878 Z" /></g></g></g><g fill="rgb(0,0,0)" fill-opacity="1.0" stroke-width="1.0e-2"><g fill="rgb(0,0,0)" fill-opacity="1.0"><g fill="rgb(0,0,0)" fill-opacity="1.0"><path d="M -8627.563560000002,-16950.633153519997 l 19.6281963227666,-118.43452372140018 l -1745.8014051429054,-252.82604286183778 l -27.47947485187251,165.80833320996317 l 1734.0244873492447,323.886757094675 Z" /></g></g></g><g fill="rgb(0,0,0)" fill-opacity="1.0" stroke-width="1.0e-2"><g fill="rgb(0,0,0)" fill-opacity="1.0"><g fill="rgb(0,0,0)" fill-opacity="1.0"><path d="M -8627.563560000002,-16950.633153519997 l 35.79548304138916,-114.58920496204519 l -933.8308289463421,-253.97963848964355 l -50.11367625794446,160.42488694686472 l 912.3535391215082,322.7331614668692 Z" /></g></g></g><g fill="rgb(0,0,0)" fill-opacity="1.0" stroke-width="1.0e-2"><g fill="rgb(0,0,0)" fill-opacity="1.0"><g fill="rgb(0,0,0)" fill-opacity="1.0"><path d="M -6286.800000000001,-17278.8484 l -23.814279925239134,-169.83854118439194 l -2333.6192760224303,379.1668088353181 l 33.339991895336425,237.77395765815163 l 2347.907843977572,-277.2636841246858 Z" /></g></g></g><g fill="rgb(0,0,0)" fill-opacity="1.0" stroke-width="1.0e-2"><g fill="rgb(0,0,0)" fill-opacity="1.0"><g fill="rgb(0,0,0)" fill-opacity="1.0"><path d="M -8447.309040000002,-18922.71315352 l 20.105412823533698,-118.35444594604633 l -1703.4979854665416,-252.85006619444175 l -28.14757795294645,165.6962243244634 l 1691.4347377724207,323.862733762071 Z" /></g></g></g><g fill="rgb(0,0,0)" fill-opacity="1.0" stroke-width="1.0e-2"><g fill="rgb(0,0,0)" fill-opacity="1.0"><g fill="rgb(0,0,0)" fill-opacity="1.0"><path d="M -8447.309040000002,-18922.71315352 l 70.25850576043558,-97.3434377259764 l -1168.980204572128,-799.3060806604626 l -98.36190806460945,136.28081281636696 l 1126.8251011158663,857.7121432960485 Z" /></g></g></g><g fill="rgb(0,0,0)" fill-opacity="1.0" stroke-width="1.0e-2"><g fill="rgb(0,0,0)" fill-opacity="1.0"><g fill="rgb(0,0,0)" fill-opacity="1.0"><path d="M -8447.309040000002,-18922.71315352 l 109.67949806030083,-48.80993961521017 l -738.115391290612,-1570.0188420936938 l -153.55129728441898,68.3339154612986 l 672.3076924544293,1599.3048058628156 Z" /></g></g></g><g fill="rgb(0,0,0)" fill-opacity="1.0" stroke-width="1.0e-2"><g fill="rgb(0,0,0)" fill-opacity="1.0"><g fill="rgb(0,0,0)" fill-opacity="1.0"><path d="M -6286.800000000001,-17278.8484 l 103.84696144707596,-136.4846460163535 l -2191.663128434124,-1602.9193597150952 l -145.38574602590597,191.07850442289782 l 2129.354951565878,1684.8101473249044 Z" /></g></g></g><g fill="rgb(0,0,0)" fill-opacity="1.0" stroke-width="1.0e-2"><g fill="rgb(0,0,0)" fill-opacity="1.0"><g fill="rgb(0,0,0)" fill-opacity="1.0"><path d="M -7187.0545200000015,-18922.71315352 l 28.412280947614818,-116.63937924797938 l -1192.2974037423637,-253.3645862038611 l -39.77719332665947,163.29513094716822 l 1175.2500351737935,323.34821375265165 Z" /></g></g></g><g fill="rgb(0,0,0)" fill-opacity="1.0" stroke-width="1.0e-2"><g fill="rgb(0,0,0)" fill-opacity="1.0"><g fill="rgb(0,0,0)" fill-opacity="1.0"><path d="M -7187.0545200000015,-18922.71315352 l 111.45525066330265,-44.606385188450076 l -667.6465858815845,-1571.2799084217186 l -156.0373509286237,62.448939263827924 l 600.773435483603,1598.0437395347908 Z" /></g></g></g><g fill="rgb(0,0,0)" fill-opacity="1.0" stroke-width="1.0e-2"><g fill="rgb(0,0,0)" fill-opacity="1.0"><g fill="rgb(0,0,0)" fill-opacity="1.0"><path d="M -7187.0545200000015,-18922.71315352 l 111.13211836061964,45.40544866732671 l 305.16581646448503,-842.1307465784521 l -155.5849657048675,-63.5676281342603 l -371.8450874808568,814.887477378059 Z" /></g></g></g><g fill="rgb(0,0,0)" fill-opacity="1.0" stroke-width="1.0e-2"><g fill="rgb(0,0,0)" fill-opacity="1.0"><g fill="rgb(0,0,0)" fill-opacity="1.0"><path d="M -6286.800000000001,-17278.8484 l 150.420357335478,-82.37697553969338 l -945.3806272006441,-1619.1516608580896 l -210.58850026966866,115.32776575556636 l 855.1284127993567,1668.57784618191 Z" /></g></g></g><g fill="rgb(0,0,0)" fill-opacity="1.0" stroke-width="1.0e-2"><g fill="rgb(0,0,0)" fill-opacity="1.0"><g fill="rgb(0,0,0)" fill-opacity="1.0"><path d="M -3000.0000000000005,-15478.0 l 117.72405650084784,-214.8628551448237 l -3322.1172169502547,-1736.389543456553 l -164.81367910118752,300.80799720275536 l 3251.4827830497466,1865.307256543445 Z" /></g></g></g><g fill="rgb(0,0,0)" fill-opacity="1.0" stroke-width="1.0e-2"><g fill="rgb(0,0,0)" fill-opacity="1.0"><g fill="rgb(0,0,0)" fill-opacity="1.0"><path d="M -6961.291171656358,-20722.71315352 l 16.379932263703267,-118.92729005168076 l -1676.3173097062963,-194.5252702336802 l -22.931905169185484,166.49820607235597 l 1666.4893503480753,265.88164426468575 Z" /></g></g></g><g fill="rgb(0,0,0)" fill-opacity="1.0" stroke-width="1.0e-2"><g fill="rgb(0,0,0)" fill-opacity="1.0"><g fill="rgb(0,0,0)" fill-opacity="1.0"><path d="M -6961.291171656358,-20722.71315352 l 73.78807638652506,-94.69594649812643 l -1229.372825684729,-912.2825043081575 l -103.3033069411349,132.57432509737555 l 1185.0999798528137,969.1000722070348 Z" /></g></g></g><g fill="rgb(0,0,0)" fill-opacity="1.0" stroke-width="1.0e-2"><g fill="rgb(0,0,0)" fill-opacity="1.0"><g fill="rgb(0,0,0)" fill-opacity="1.0"><path d="M -6961.291171656358,-20722.71315352 l 109.62440100375534,-48.93355908339072 l -716.1229832819281,-1515.9525227029735 l -153.4741614052582,68.50698271674628 l 650.3483426796756,1545.3126581530087 Z" /></g></g></g><g fill="rgb(0,0,0)" fill-opacity="1.0" stroke-width="1.0e-2"><g fill="rgb(0,0,0)" fill-opacity="1.0"><g fill="rgb(0,0,0)" fill-opacity="1.0"><path d="M -4793.909283025009,-19078.8484 l 103.63803572864163,-136.64335896891862 l -2198.473299349941,-1602.871745829325 l -145.0932500200979,191.30070255648752 l 2136.2904779127557,1684.8577612106747 Z" /></g></g></g><g fill="rgb(0,0,0)" fill-opacity="1.0" stroke-width="1.0e-2"><g fill="rgb(0,0,0)" fill-opacity="1.0"><g fill="rgb(0,0,0)" fill-opacity="1.0"><path d="M -5680.271938010988,-20632.407583704993 l 69.63805155941463,-97.78826246031895 l -1341.8440344793744,-911.3548095195001 l -97.49327218318103,136.9035674444458 l 1300.0612035437262,970.0277669956922 Z" /></g></g></g><g fill="rgb(0,0,0)" fill-opacity="1.0" stroke-width="1.0e-2"><g fill="rgb(0,0,0)" fill-opacity="1.0"><g fill="rgb(0,0,0)" fill-opacity="1.0"><path d="M -5680.271938010988,-20632.407583704993 l 45.89954650364962,-110.92895983808558 l -351.92284228572225,-106.64030504258335 l -64.25936510511019,155.30054377331544 l 324.3831143835332,173.19768094543906 Z" /></g></g></g><g fill="rgb(0,0,0)" fill-opacity="1.0" stroke-width="1.0e-2"><g fill="rgb(0,0,0)" fill-opacity="1.0"><g fill="rgb(0,0,0)" fill-opacity="1.0"><path d="M -5680.271938010988,-20632.407583704993 l 118.93113380781779,16.352000219758338 l 166.77786999987438,-1477.4144813151106 l -166.50358733094436,-22.892800307658035 l -238.1365502845656,1467.603281183252 Z" /></g></g></g><g fill="rgb(0,0,0)" fill-opacity="1.0" stroke-width="1.0e-2"><g fill="rgb(0,0,0)" fill-opacity="1.0"><g fill="rgb(0,0,0)" fill-opacity="1.0"><path d="M -4793.909283025009,-19078.8484 l 148.96088943312952,-84.98766627747318 l -931.0509218159177,-1528.0628838217526 l -208.54524520638188,118.98273278846318 l 841.6743881560405,1579.0554835882358 Z" /></g></g></g><g fill="rgb(0,0,0)" fill-opacity="1.0" stroke-width="1.0e-2"><g fill="rgb(0,0,0)" fill-opacity="1.0"><g fill="rgb(0,0,0)" fill-opacity="1.0"><path d="M -4688.275255130981,-21799.058723335005 l 107.57617968224622,-53.28572102330145 l -790.4412648264006,-1514.646874121001 l -150.6066515551447,74.60000943262276 l 725.8955570170529,1546.6183067349812 Z" /></g></g></g><g fill="rgb(0,0,0)" fill-opacity="1.0" stroke-width="1.0e-2"><g fill="rgb(0,0,0)" fill-opacity="1.0"><g fill="rgb(0,0,0)" fill-opacity="1.0"><path d="M -4688.275255130981,-21799.058723335005 l 119.95849970530526,4.686240332317539 l 21.536764963617316,-1473.9147533488758 l -167.94189958742754,-6.560736465246009 l -93.51186478680029,1471.1030091494868 Z" /></g></g></g><g fill="rgb(0,0,0)" fill-opacity="1.0" stroke-width="1.0e-2"><g fill="rgb(0,0,0)" fill-opacity="1.0"><g fill="rgb(0,0,0)" fill-opacity="1.0"><path d="M -4688.275255130981,-21799.058723335005 l 103.13095615698148,61.44923418682083 l 843.303770640468,-1485.6869439476213 l -144.3833386197739,-86.02892786154553 l -905.182344334657,1448.8174034355252 Z" /></g></g></g><g fill="rgb(0,0,0)" fill-opacity="1.0" stroke-width="1.0e-2"><g fill="rgb(0,0,0)" fill-opacity="1.0"><g fill="rgb(0,0,0)" fill-opacity="1.0"><path d="M -4793.909283025009,-19078.8484 l 171.37083466030617,6.65484994797589 l 54.22277749593559,-2722.2067783193997 l -239.91916852442773,-9.316789927164791 l -157.0452782921202,2718.2138683506128 Z" /></g></g></g><g fill="rgb(0,0,0)" fill-opacity="1.0" stroke-width="1.0e-2"><g fill="rgb(0,0,0)" fill-opacity="1.0"><g fill="rgb(0,0,0)" fill-opacity="1.0"><path d="M -3000.0000000000005,-15478.0 l 219.29313635752942,-109.24980707753275 l -1859.6972239322677,-3568.0734578767406 l -307.0103909005411,152.94972990854876 l 1728.12134211775,3633.6233421232573 Z" /></g></g></g><g fill="rgb(0,0,0)" fill-opacity="1.0" stroke-width="1.0e-2"><g fill="rgb(0,0,0)" fill-opacity="1.0"><g fill="rgb(0,0,0)" fill-opacity="1.0"><path d="M -4033.637101989015,-20722.71315352 l 21.189973406524132,-118.16508590540252 l -1290.0778716901955,-194.7539314775604 l -29.66596276913333,165.4311202675599 l 1277.3638876462805,265.65298302080555 Z" /></g></g></g><g fill="rgb(0,0,0)" fill-opacity="1.0" stroke-width="1.0e-2"><g fill="rgb(0,0,0)" fill-opacity="1.0"><g fill="rgb(0,0,0)" fill-opacity="1.0"><path d="M -4033.637101989015,-20722.71315352 l 105.83398038292626,-56.667195945330604 l -851.3041465247029,-1513.6324316443897 l -148.1675725360965,79.33407432345848 l 787.8037582949473,1547.6327492115925 Z" /></g></g></g><g fill="rgb(0,0,0)" fill-opacity="1.0" stroke-width="1.0e-2"><g fill="rgb(0,0,0)" fill-opacity="1.0"><g fill="rgb(0,0,0)" fill-opacity="1.0"><path d="M -4033.637101989015,-20722.71315352 l 118.40704893447219,19.793263061696052 l 121.72654826567623,-946.6292671761039 l -165.76986850826052,-27.710568286376656 l -192.7707776263601,934.7533093390884 Z" /></g></g></g><g fill="rgb(0,0,0)" fill-opacity="1.0" stroke-width="1.0e-2"><g fill="rgb(0,0,0)" fill-opacity="1.0"><g fill="rgb(0,0,0)" fill-opacity="1.0"><path d="M -2849.4907169749927,-19078.8484 l 139.15550641503432,-100.23968792038067 l -1225.8930369385325,-1613.7928471438863 l -194.81770898104833,140.3355630885344 l 1142.3997330895122,1673.9366598961133 Z" /></g></g></g><g fill="rgb(0,0,0)" fill-opacity="1.0" stroke-width="1.0e-2"><g fill="rgb(0,0,0)" fill-opacity="1.0"><g fill="rgb(0,0,0)" fill-opacity="1.0"><path d="M -2752.617868343645,-21799.058723335 l 107.44001708655605,-53.559735141621786 l -795.2649826469005,-1514.5646698855016 l -150.41602392117875,74.98362919826468 l 730.8009723949672,1546.7005109704805 Z" /></g></g></g><g fill="rgb(0,0,0)" fill-opacity="1.0" stroke-width="1.0e-2"><g fill="rgb(0,0,0)" fill-opacity="1.0"><g fill="rgb(0,0,0)" fill-opacity="1.0"><path d="M -2752.617868343645,-21799.058723335 l 119.97275668727616,4.305827778218372 l 16.667921269817725,-1468.543922025041 l -167.96185936218626,-6.028158889501356 l -88.65157528218379,1465.9604253581056 Z" /></g></g></g><g fill="rgb(0,0,0)" fill-opacity="1.0" stroke-width="1.0e-2"><g fill="rgb(0,0,0)" fill-opacity="1.0"><g fill="rgb(0,0,0)" fill-opacity="1.0"><path d="M -2752.617868343645,-21799.058723335 l 103.37097691768031,61.044603619684494 l 838.5627756103859,-1490.8222623350848 l -144.71936768475234,-85.46244506756193 l -900.5853617609941,1454.1955001632778 Z" /></g></g></g><g fill="rgb(0,0,0)" fill-opacity="1.0" stroke-width="1.0e-2"><g fill="rgb(0,0,0)" fill-opacity="1.0"><g fill="rgb(0,0,0)" fill-opacity="1.0"><path d="M -2849.4907169749927,-19078.8484 l 171.3913523214842,6.1036341152503155 l 45.455442934902294,-2722.041413569579 l -239.94789325007787,-8.545087761347531 l -148.2902543277928,2718.379233100426 Z" /></g></g></g><g fill="rgb(0,0,0)" fill-opacity="1.0" stroke-width="1.0e-2"><g fill="rgb(0,0,0)" fill-opacity="1.0"><g fill="rgb(0,0,0)" fill-opacity="1.0"><path d="M -1514.8702248690204,-20632.407583704993 l 119.82452365884069,-7.354320494236163 l -93.68299425051669,-938.4849921093264 l -167.75433312237692,10.29604869193281 l 21.788280055212226,942.8975844058659 Z" /></g></g></g><g fill="rgb(0,0,0)" fill-opacity="1.0" stroke-width="1.0e-2"><g fill="rgb(0,0,0)" fill-opacity="1.0"><g fill="rgb(0,0,0)" fill-opacity="1.0"><path d="M -1514.8702248690204,-20632.407583704993 l 101.65467121680103,63.861806424531096 l 894.5676021590173,-1491.6674231765428 l -142.31653970352136,-89.40652899433917 l -955.560404889098,1453.3503393218198 Z" /></g></g></g><g fill="rgb(0,0,0)" fill-opacity="1.0" stroke-width="1.0e-2"><g fill="rgb(0,0,0)" fill-opacity="1.0"><g fill="rgb(0,0,0)" fill-opacity="1.0"><path d="M -1514.8702248690204,-20632.407583704993 l 12.597811278961217,119.38717540414291 l 1322.2076069720724,-175.7351456152537 l -17.63693579054558,-167.1420455658008 l -1329.7662937394493,104.1028403727687 Z" /></g></g></g><g fill="rgb(0,0,0)" fill-opacity="1.0" stroke-width="1.0e-2"><g fill="rgb(0,0,0)" fill-opacity="1.0"><g fill="rgb(0,0,0)" fill-opacity="1.0"><path d="M -2849.4907169749927,-19078.8484 l 130.0883699085325,111.75538472279732 l 1295.5939811334124,-1587.0857991218327 l -182.12371787194525,-156.4575386119177 l -1373.6470030785322,1520.0325682881557 Z" /></g></g></g><g fill="rgb(0,0,0)" fill-opacity="1.0" stroke-width="1.0e-2"><g fill="rgb(0,0,0)" fill-opacity="1.0"><g fill="rgb(0,0,0)" fill-opacity="1.0"><path d="M -3000.0000000000005,-15478.0 l 244.7862607027978,10.231645573512651 l 77.0734048141685,-3603.9178936720527 l -342.700764983917,-14.324303802917711 l -223.94516123584708,3597.778906327945 Z" /></g></g></g><g fill="rgb(0,0,0)" fill-opacity="1.0" stroke-width="1.0e-2"><g fill="rgb(0,0,0)" fill-opacity="1.0"><g fill="rgb(0,0,0)" fill-opacity="1.0"><path d="M 0.0,-10000.0 l 306.9803210928126,-168.11627661161765 l -3092.0940963278445,-5427.565117016515 l -429.77244952993715,235.3627872562647 l 2907.9059036721565,5528.434882983485 Z" /></g></g></g><g fill="rgb(0,0,0)" fill-opacity="1.0" stroke-width="1.0e-2"><g fill="rgb(0,0,0)" fill-opacity="1.0"><g fill="rgb(0,0,0)" fill-opacity="1.0"><path d="M -4165.401713141969,-20632.407583704993 l 10.058178193206913,-119.6279045684314 l -1667.1573821483507,-104.03062162348215 l -14.081449470490043,167.4790663958047 l 1661.122475232427,175.80736436454026 Z" /></g></g></g><g fill="rgb(0,0,0)" fill-opacity="1.0" stroke-width="1.0e-2"><g fill="rgb(0,0,0)" fill-opacity="1.0"><g fill="rgb(0,0,0)" fill-opacity="1.0"><path d="M -4165.401713141969,-20632.407583704993 l 71.70169252213464,-96.28535604888748 l -1284.7274896153262,-911.8056814429292 l -100.38236953098931,134.79949846844102 l 1241.7064741020467,969.5768950722631 Z" /></g></g></g><g fill="rgb(0,0,0)" fill-opacity="1.0" stroke-width="1.0e-2"><g fill="rgb(0,0,0)" fill-opacity="1.0"><g fill="rgb(0,0,0)" fill-opacity="1.0"><path d="M -4165.401713141969,-20632.407583704993 l 107.77255795992778,-52.88741108027534 l -754.9385607698164,-1456.6426579250983 l -150.88158114389807,74.04237551238475 l 690.2750259938593,1488.3751045732643 Z" /></g></g></g><g fill="rgb(0,0,0)" fill-opacity="1.0" stroke-width="1.0e-2"><g fill="rgb(0,0,0)" fill-opacity="1.0"><g fill="rgb(0,0,0)" fill-opacity="1.0"><path d="M -1944.4185660500175,-19078.8484 l 98.30084120040124,-140.53182778037808 l -2250.473399452072,-1511.399635370879 l -137.62117768056123,196.74455889252567 l 2191.4928947318303,1595.7187320391095 Z" /></g></g></g><g fill="rgb(0,0,0)" fill-opacity="1.0" stroke-width="1.0e-2"><g fill="rgb(0,0,0)" fill-opacity="1.0"><g fill="rgb(0,0,0)" fill-opacity="1.0"><path d="M -2927.6540696673446,-20722.71315352 l 68.13999911709698,-98.83796345697192 l -1384.92706544992,-911.0398992205046 l -95.3959987639355,138.3731488397607 l 1344.0430659796616,970.3426772946877 Z" /></g></g></g><g fill="rgb(0,0,0)" fill-opacity="1.0" stroke-width="1.0e-2"><g fill="rgb(0,0,0)" fill-opacity="1.0"><g fill="rgb(0,0,0)" fill-opacity="1.0"><path d="M -2927.6540696673446,-20722.71315352 l 61.29352445145287,-103.22357463447406 l -406.07050769438365,-199.23638485884294 l -85.81093423203401,144.51300448826805 l 369.29439302351193,261.170529639523 Z" /></g></g></g><g fill="rgb(0,0,0)" fill-opacity="1.0" stroke-width="1.0e-2"><g fill="rgb(0,0,0)" fill-opacity="1.0"><g fill="rgb(0,0,0)" fill-opacity="1.0"><path d="M -2927.6540696673446,-20722.71315352 l 119.57671326079526,10.649513873671822 l 100.44527545078336,-1533.8274445900934 l -167.4073985651139,-14.909319423139095 l -172.19130340725997,1527.4377362658888 Z" /></g></g></g><g fill="rgb(0,0,0)" fill-opacity="1.0" stroke-width="1.0e-2"><g fill="rgb(0,0,0)" fill-opacity="1.0"><g fill="rgb(0,0,0)" fill-opacity="1.0"><path d="M -1944.4185660500175,-19078.8484 l 147.18168975815274,-88.03294951286807 l -1027.390010544773,-1617.4548686661365 l -206.0543656614136,123.24612931800948 l 939.080996689881,1670.2746383738631 Z" /></g></g></g><g fill="rgb(0,0,0)" fill-opacity="1.0" stroke-width="1.0e-2"><g fill="rgb(0,0,0)" fill-opacity="1.0"><g fill="rgb(0,0,0)" fill-opacity="1.0"><path d="M -1935.6573867873383,-21799.058723335005 l 105.12423969530346,-57.97324148677944 l -843.5870257190725,-1455.1169088031456 l -147.1739355734253,81.16253808148758 l 780.5124819018909,1489.900853695217 Z" /></g></g></g><g fill="rgb(0,0,0)" fill-opacity="1.0" stroke-width="1.0e-2"><g fill="rgb(0,0,0)" fill-opacity="1.0"><g fill="rgb(0,0,0)" fill-opacity="1.0"><path d="M -1935.6573867873383,-21799.058723335005 l 120.04939371716387,0.38153393216998666 l -31.150251515941818,-1530.7470506076424 l -168.06915120402937,-0.5341475050372537 l -40.87938471435655,1530.5181302483397 Z" /></g></g></g><g fill="rgb(0,0,0)" fill-opacity="1.0" stroke-width="1.0e-2"><g fill="rgb(0,0,0)" fill-opacity="1.0"><g fill="rgb(0,0,0)" fill-opacity="1.0"><path d="M -1935.6573867873383,-21799.058723335005 l 104.74671819122409,58.65260035299434 l 790.1592937541941,-1484.8479537974708 l -146.64540546771377,-82.11364049419353 l -853.0073246689285,1449.6563935856757 Z" /></g></g></g><g fill="rgb(0,0,0)" fill-opacity="1.0" stroke-width="1.0e-2"><g fill="rgb(0,0,0)" fill-opacity="1.0"><g fill="rgb(0,0,0)" fill-opacity="1.0"><path d="M -1944.4185660500175,-19078.8484 l 171.49911048983768,0.5523596603925398 l -42.688553884272096,-2720.376031233125 l -240.09875468577275,-0.773303524547373 l -60.21091240963051,2720.0446154368874 Z" /></g></g></g><g fill="rgb(0,0,0)" fill-opacity="1.0" stroke-width="1.0e-2"><g fill="rgb(0,0,0)" fill-opacity="1.0"><g fill="rgb(0,0,0)" fill-opacity="1.0"><path d="M -6.661338147750939e-13,-15478.0 l 215.57781286340315,-116.40964994806745 l -2009.0919099090377,-3565.925505015579 l -301.80893800876424,162.9735099272948 l 1879.7452221909957,3635.771294984419 Z" /></g></g></g><g fill="rgb(0,0,0)" fill-opacity="1.0" stroke-width="1.0e-2"><g fill="rgb(0,0,0)" fill-opacity="1.0"><g fill="rgb(0,0,0)" fill-opacity="1.0"><path d="M -1260.254520000002,-18922.71315352 l 58.44837509291665,-104.86081226558235 l -1503.9426173445443,-797.0508682985819 l -81.82772513008331,146.80513717181748 l 1468.8735922887943,859.9673556579291 Z" /></g></g></g><g fill="rgb(0,0,0)" fill-opacity="1.0" stroke-width="1.0e-2"><g fill="rgb(0,0,0)" fill-opacity="1.0"><g fill="rgb(0,0,0)" fill-opacity="1.0"><path d="M -1260.254520000002,-18922.71315352 l 58.76361902613962,-104.68447630355877 l -531.3217278692466,-256.95105708718984 l -82.2690666365952,146.55826682498446 l 496.06355645356257,319.7617428693229 Z" /></g></g></g><g fill="rgb(0,0,0)" fill-opacity="1.0" stroke-width="1.0e-2"><g fill="rgb(0,0,0)" fill-opacity="1.0"><g fill="rgb(0,0,0)" fill-opacity="1.0"><path d="M -1260.254520000002,-18922.71315352 l 119.92967908851392,-5.3735066507906595 l -106.98043491648195,-1583.0497719830164 l -167.90155072391917,7.5229093111047405 l 35.02262746337328,1586.273875973493 Z" /></g></g></g><g fill="rgb(0,0,0)" fill-opacity="1.0" stroke-width="1.0e-2"><g fill="rgb(0,0,0)" fill-opacity="1.0"><g fill="rgb(0,0,0)" fill-opacity="1.0"><path d="M -1.2877076683854172e-12,-17278.8484 l 136.10516168257635,-104.34383049974713 l -1301.0860685047735,-1612.5616043700757 l -190.5472263556071,146.08136269964598 l 1219.422971495228,1675.167902669924 Z" /></g></g></g><g fill="rgb(0,0,0)" fill-opacity="1.0" stroke-width="1.0e-2"><g fill="rgb(0,0,0)" fill-opacity="1.0"><g fill="rgb(0,0,0)" fill-opacity="1.0"><path d="M -1.7203352031227916e-12,-16950.63315352 l 39.96327739459844,-113.2030872365358 l -828.8097454305301,-254.39547380729346 l -55.94858835243781,158.48432213114575 l 804.8317789937711,322.3173261492193 Z" /></g></g></g><g fill="rgb(0,0,0)" fill-opacity="1.0" stroke-width="1.0e-2"><g fill="rgb(0,0,0)" fill-opacity="1.0"><g fill="rgb(0,0,0)" fill-opacity="1.0"><path d="M -1.7203352031227916e-12,-16950.63315352 h -120.04999999999997 l 36.01499999999977,1116.101736021743 h 168.06999999999994 l 36.01500000000023,-1116.101736021743 Z" /></g></g></g><g fill="rgb(0,0,0)" fill-opacity="1.0" stroke-width="1.0e-2"><g fill="rgb(0,0,0)" fill-opacity="1.0"><g fill="rgb(0,0,0)" fill-opacity="1.0"><path d="M -1.7203352031227916e-12,-16950.63315352 l 39.96327739459845,113.2030872365358 l 804.8317789937706,-322.3173261492193 l -55.94858835243781,-158.48432213114575 l -828.8097454305297,254.39547380729346 Z" /></g></g></g><g fill="rgb(0,0,0)" fill-opacity="1.0" stroke-width="1.0e-2"><g fill="rgb(0,0,0)" fill-opacity="1.0"><g fill="rgb(0,0,0)" fill-opacity="1.0"><path d="M -1.2877076683854172e-12,-17278.8484 h -171.49999999999997 l 51.44999999999956,328.2152464799983 h 240.09999999999994 l 51.45000000000044,-328.2152464799983 Z" /></g></g></g><g fill="rgb(0,0,0)" fill-opacity="1.0" stroke-width="1.0e-2"><g fill="rgb(0,0,0)" fill-opacity="1.0"><g fill="rgb(0,0,0)" fill-opacity="1.0"><path d="M 1260.2545199999988,-18922.71315352 l 119.92967908851392,5.3735066507906595 l 35.02262746337328,-1586.273875973493 l -167.90155072391917,-7.5229093111047405 l -106.98043491648195,1583.0497719830164 Z" /></g></g></g><g fill="rgb(0,0,0)" fill-opacity="1.0" stroke-width="1.0e-2"><g fill="rgb(0,0,0)" fill-opacity="1.0"><g fill="rgb(0,0,0)" fill-opacity="1.0"><path d="M 1260.2545199999988,-18922.71315352 l 58.76361902613962,104.68447630355877 l 496.0635564535621,-319.7617428693229 l -82.2690666365952,-146.55826682498446 l -531.3217278692462,256.95105708718984 Z" /></g></g></g><g fill="rgb(0,0,0)" fill-opacity="1.0" stroke-width="1.0e-2"><g fill="rgb(0,0,0)" fill-opacity="1.0"><g fill="rgb(0,0,0)" fill-opacity="1.0"><path d="M 1260.2545199999988,-18922.71315352 l 58.44837509291665,104.86081226558235 l 1468.8735922887938,-859.9673556579291 l -81.82772513008331,-146.80513717181748 l -1503.9426173445438,797.0508682985819 Z" /></g></g></g><g fill="rgb(0,0,0)" fill-opacity="1.0" stroke-width="1.0e-2"><g fill="rgb(0,0,0)" fill-opacity="1.0"><g fill="rgb(0,0,0)" fill-opacity="1.0"><path d="M -1.2877076683854172e-12,-17278.8484 l 136.10516168257635,104.34383049974713 l 1219.4229714952273,-1675.167902669924 l -190.5472263556071,-146.08136269964598 l -1301.0860685047728,1612.5616043700757 Z" /></g></g></g><g fill="rgb(0,0,0)" fill-opacity="1.0" stroke-width="1.0e-2"><g fill="rgb(0,0,0)" fill-opacity="1.0"><g fill="rgb(0,0,0)" fill-opacity="1.0"><path d="M -6.661338147750939e-13,-15478.0 h 244.99999999999994 l -73.50000000000063,-1800.848399999999 h -342.9999999999999 l -73.49999999999937,1800.848399999999 Z" /></g></g></g><g fill="rgb(0,0,0)" fill-opacity="1.0" stroke-width="1.0e-2"><g fill="rgb(0,0,0)" fill-opacity="1.0"><g fill="rgb(0,0,0)" fill-opacity="1.0"><path d="M 1935.6573867873353,-21799.058723335005 l 104.74671819122409,-58.65260035299434 l -853.007324668929,-1449.6563935856757 l -146.64540546771377,82.11364049419353 l 790.1592937541946,1484.8479537974708 Z" /></g></g></g><g fill="rgb(0,0,0)" fill-opacity="1.0" stroke-width="1.0e-2"><g fill="rgb(0,0,0)" fill-opacity="1.0"><g fill="rgb(0,0,0)" fill-opacity="1.0"><path d="M 1935.6573867873353,-21799.058723335005 l 120.04939371716364,-0.38153393216998666 l -40.879384714357,-1530.5181302483397 l -168.06915120402937,0.5341475050372537 l -31.15025151594091,1530.7470506076424 Z" /></g></g></g><g fill="rgb(0,0,0)" fill-opacity="1.0" stroke-width="1.0e-2"><g fill="rgb(0,0,0)" fill-opacity="1.0"><g fill="rgb(0,0,0)" fill-opacity="1.0"><path d="M 1935.6573867873353,-21799.058723335005 l 105.12423969530346,57.97324148677944 l 780.5124819018906,-1489.900853695217 l -147.1739355734253,-81.16253808148758 l -843.5870257190722,1455.1169088031456 Z" /></g></g></g><g fill="rgb(0,0,0)" fill-opacity="1.0" stroke-width="1.0e-2"><g fill="rgb(0,0,0)" fill-opacity="1.0"><g fill="rgb(0,0,0)" fill-opacity="1.0"><path d="M 1944.4185660500152,-19078.8484 l 171.49911048983768,-0.5523596603925398 l -60.210912409630964,-2720.0446154368874 l -240.09875468577297,0.773303524547373 l -42.688553884271414,2720.376031233125 Z" /></g></g></g><g fill="rgb(0,0,0)" fill-opacity="1.0" stroke-width="1.0e-2"><g fill="rgb(0,0,0)" fill-opacity="1.0"><g fill="rgb(0,0,0)" fill-opacity="1.0"><path d="M 2927.654069667341,-20722.71315352 l 119.57671326079526,-10.649513873671822 l -172.19130340726088,-1527.4377362658888 l -167.4073985651139,14.909319423139095 l 100.44527545078427,1533.8274445900934 Z" /></g></g></g><g fill="rgb(0,0,0)" fill-opacity="1.0" stroke-width="1.0e-2"><g fill="rgb(0,0,0)" fill-opacity="1.0"><g fill="rgb(0,0,0)" fill-opacity="1.0"><path d="M 2927.654069667341,-20722.71315352 l 61.29352445145287,103.22357463447406 l 369.29439302351057,-261.170529639523 l -85.81093423203401,-144.51300448826805 l -406.0705076943823,199.23638485884294 Z" /></g></g></g><g fill="rgb(0,0,0)" fill-opacity="1.0" stroke-width="1.0e-2"><g fill="rgb(0,0,0)" fill-opacity="1.0"><g fill="rgb(0,0,0)" fill-opacity="1.0"><path d="M 2927.654069667341,-20722.71315352 l 68.13999911709698,98.83796345697192 l 1344.0430659796607,-970.3426772946877 l -95.3959987639355,-138.3731488397607 l -1384.9270654499192,911.0398992205046 Z" /></g></g></g><g fill="rgb(0,0,0)" fill-opacity="1.0" stroke-width="1.0e-2"><g fill="rgb(0,0,0)" fill-opacity="1.0"><g fill="rgb(0,0,0)" fill-opacity="1.0"><path d="M 1944.4185660500152,-19078.8484 l 147.18168975815297,88.03294951286443 l 939.0809966898796,-1670.2746383738595 l -206.0543656614136,-123.24612931800948 l -1027.3900105447717,1617.45486866614 Z" /></g></g></g><g fill="rgb(0,0,0)" fill-opacity="1.0" stroke-width="1.0e-2"><g fill="rgb(0,0,0)" fill-opacity="1.0"><g fill="rgb(0,0,0)" fill-opacity="1.0"><path d="M 4165.401713141966,-20632.407583704993 l 107.77255795992733,52.88741108027534 l 690.2750259938584,-1488.3751045732643 l -150.88158114389807,-74.04237551238475 l -754.9385607698155,1456.6426579250983 Z" /></g></g></g><g fill="rgb(0,0,0)" fill-opacity="1.0" stroke-width="1.0e-2"><g fill="rgb(0,0,0)" fill-opacity="1.0"><g fill="rgb(0,0,0)" fill-opacity="1.0"><path d="M 4165.401713141966,-20632.407583704993 l 71.70169252213509,96.28535604888748 l 1241.706474102044,-969.5768950722631 l -100.38236953098931,-134.79949846844102 l -1284.7274896153244,911.8056814429292 Z" /></g></g></g><g fill="rgb(0,0,0)" fill-opacity="1.0" stroke-width="1.0e-2"><g fill="rgb(0,0,0)" fill-opacity="1.0"><g fill="rgb(0,0,0)" fill-opacity="1.0"><path d="M 4165.401713141966,-20632.407583704993 l 10.058178193206913,119.6279045684314 l 1661.122475232426,-175.80736436454026 l -14.081449470490043,-167.4790663958047 l -1667.1573821483498,104.03062162348215 Z" /></g></g></g><g fill="rgb(0,0,0)" fill-opacity="1.0" stroke-width="1.0e-2"><g fill="rgb(0,0,0)" fill-opacity="1.0"><g fill="rgb(0,0,0)" fill-opacity="1.0"><path d="M 1944.4185660500152,-19078.8484 l 98.30084120040124,140.53182778037808 l 2191.4928947318303,-1595.7187320391095 l -137.62117768056123,-196.74455889252567 l -2250.473399452071,1511.399635370879 Z" /></g></g></g><g fill="rgb(0,0,0)" fill-opacity="1.0" stroke-width="1.0e-2"><g fill="rgb(0,0,0)" fill-opacity="1.0"><g fill="rgb(0,0,0)" fill-opacity="1.0"><path d="M -6.661338147750939e-13,-15478.0 l 215.5778128634032,116.40964994806745 l 1879.7452221909946,-3635.771294984419 l -301.80893800876424,-162.9735099272948 l -2009.0919099090368,3565.925505015579 Z" /></g></g></g><g fill="rgb(0,0,0)" fill-opacity="1.0" stroke-width="1.0e-2"><g fill="rgb(0,0,0)" fill-opacity="1.0"><g fill="rgb(0,0,0)" fill-opacity="1.0"><path d="M 0.0,-10000.0 h 350.0 l -105.00000000000068,-5478.0 h -489.99999999999994 l -104.99999999999937,5478.0 Z" /></g></g></g><g fill="rgb(0,0,0)" fill-opacity="1.0" stroke-width="1.0e-2"><g fill="rgb(0,0,0)" fill-opacity="1.0"><g fill="rgb(0,0,0)" fill-opacity="1.0"><path d="M 1514.8702248690195,-20632.407583704997 l 12.597811278961217,-119.38717540414291 l -1329.76629373945,-104.1028403727687 l -17.636935790545635,167.1420455658008 l 1322.207606972073,175.7351456152537 Z" /></g></g></g><g fill="rgb(0,0,0)" fill-opacity="1.0" stroke-width="1.0e-2"><g fill="rgb(0,0,0)" fill-opacity="1.0"><g fill="rgb(0,0,0)" fill-opacity="1.0"><path d="M 1514.8702248690195,-20632.407583704997 l 101.65467121680103,-63.861806424531096 l -955.560404889099,-1453.3503393218198 l -142.31653970352136,89.40652899433917 l 894.5676021590183,1491.6674231765428 Z" /></g></g></g><g fill="rgb(0,0,0)" fill-opacity="1.0" stroke-width="1.0e-2"><g fill="rgb(0,0,0)" fill-opacity="1.0"><g fill="rgb(0,0,0)" fill-opacity="1.0"><path d="M 1514.8702248690195,-20632.407583704997 l 119.82452365884069,7.354320494236163 l 21.788280055212,-942.8975844058659 l -167.75433312237692,-10.29604869193281 l -93.68299425051646,938.4849921093264 Z" /></g></g></g><g fill="rgb(0,0,0)" fill-opacity="1.0" stroke-width="1.0e-2"><g fill="rgb(0,0,0)" fill-opacity="1.0"><g fill="rgb(0,0,0)" fill-opacity="1.0"><path d="M 2849.490716974992,-19078.848400000003 l 130.0883699085325,-111.75538472279732 l -1373.6470030785326,-1520.0325682881557 l -182.12371787194525,156.4575386119177 l 1295.5939811334129,1587.0857991218327 Z" /></g></g></g><g fill="rgb(0,0,0)" fill-opacity="1.0" stroke-width="1.0e-2"><g fill="rgb(0,0,0)" fill-opacity="1.0"><g fill="rgb(0,0,0)" fill-opacity="1.0"><path d="M 2752.6178683436437,-21799.05872333501 l 103.37097691768031,-61.044603619684494 l -900.5853617609948,-1454.1955001632778 l -144.71936768475234,85.46244506756193 l 838.5627756103866,1490.8222623350848 Z" /></g></g></g><g fill="rgb(0,0,0)" fill-opacity="1.0" stroke-width="1.0e-2"><g fill="rgb(0,0,0)" fill-opacity="1.0"><g fill="rgb(0,0,0)" fill-opacity="1.0"><path d="M 2752.6178683436437,-21799.05872333501 l 119.97275668727616,-4.305827778218372 l -88.6515752821847,-1465.9604253581056 l -167.96185936218626,6.028158889501356 l 16.667921269818635,1468.543922025041 Z" /></g></g></g><g fill="rgb(0,0,0)" fill-opacity="1.0" stroke-width="1.0e-2"><g fill="rgb(0,0,0)" fill-opacity="1.0"><g fill="rgb(0,0,0)" fill-opacity="1.0"><path d="M 2752.6178683436437,-21799.05872333501 l 107.44001708655605,53.559735141621786 l 730.8009723949672,-1546.7005109704805 l -150.41602392117875,-74.98362919826468 l -795.2649826469005,1514.5646698855016 Z" /></g></g></g><g fill="rgb(0,0,0)" fill-opacity="1.0" stroke-width="1.0e-2"><g fill="rgb(0,0,0)" fill-opacity="1.0"><g fill="rgb(0,0,0)" fill-opacity="1.0"><path d="M 2849.490716974992,-19078.848400000003 l 171.3913523214842,-6.1036341152503155 l -148.29025432779372,-2718.3792331004297 l -239.94789325007787,8.545087761347531 l 45.4554429349032,2722.041413569583 Z" /></g></g></g><g fill="rgb(0,0,0)" fill-opacity="1.0" stroke-width="1.0e-2"><g fill="rgb(0,0,0)" fill-opacity="1.0"><g fill="rgb(0,0,0)" fill-opacity="1.0"><path d="M 4033.6371019890144,-20722.713153520002 l 118.40704893447173,-19.793263061696052 l -192.7707776263601,-934.7533093390884 l -165.76986850826052,27.710568286376656 l 121.72654826567668,946.6292671761039 Z" /></g></g></g><g fill="rgb(0,0,0)" fill-opacity="1.0" stroke-width="1.0e-2"><g fill="rgb(0,0,0)" fill-opacity="1.0"><g fill="rgb(0,0,0)" fill-opacity="1.0"><path d="M 4033.6371019890144,-20722.713153520002 l 105.83398038292626,56.667195945330604 l 787.8037582949455,-1547.6327492115925 l -148.1675725360965,-79.33407432345848 l -851.3041465247015,1513.6324316443897 Z" /></g></g></g><g fill="rgb(0,0,0)" fill-opacity="1.0" stroke-width="1.0e-2"><g fill="rgb(0,0,0)" fill-opacity="1.0"><g fill="rgb(0,0,0)" fill-opacity="1.0"><path d="M 4033.6371019890144,-20722.713153520002 l 21.189973406524132,118.16508590540252 l 1277.363887646281,-265.65298302080555 l -29.66596276913333,-165.4311202675599 l -1290.077871690196,194.7539314775604 Z" /></g></g></g><g fill="rgb(0,0,0)" fill-opacity="1.0" stroke-width="1.0e-2"><g fill="rgb(0,0,0)" fill-opacity="1.0"><g fill="rgb(0,0,0)" fill-opacity="1.0"><path d="M 2849.490716974992,-19078.848400000003 l 139.15550641503432,100.23968792038067 l 1142.3997330895118,-1673.9366598961133 l -194.81770898104787,-140.3355630885344 l -1225.8930369385325,1613.7928471438863 Z" /></g></g></g><g fill="rgb(0,0,0)" fill-opacity="1.0" stroke-width="1.0e-2"><g fill="rgb(0,0,0)" fill-opacity="1.0"><g fill="rgb(0,0,0)" fill-opacity="1.0"><path d="M 3000.0000000000005,-15478.0 l 244.7862607027978,-10.231645573512651 l -223.94516123584754,-3597.778906327949 l -342.700764983917,14.324303802917711 l 77.07340481416895,3603.9178936720564 Z" /></g></g></g><g fill="rgb(0,0,0)" fill-opacity="1.0" stroke-width="1.0e-2"><g fill="rgb(0,0,0)" fill-opacity="1.0"><g fill="rgb(0,0,0)" fill-opacity="1.0"><path d="M 4688.27525513098,-21799.058723335005 l 103.13095615698148,-61.44923418682083 l -905.182344334657,-1448.8174034355252 l -144.3833386197739,86.02892786154553 l 843.303770640468,1485.6869439476213 Z" /></g></g></g><g fill="rgb(0,0,0)" fill-opacity="1.0" stroke-width="1.0e-2"><g fill="rgb(0,0,0)" fill-opacity="1.0"><g fill="rgb(0,0,0)" fill-opacity="1.0"><path d="M 4688.27525513098,-21799.058723335005 l 119.95849970530526,-4.686240332317539 l -93.51186478680029,-1471.1030091494868 l -167.94189958742754,6.560736465246009 l 21.536764963617316,1473.9147533488758 Z" /></g></g></g><g fill="rgb(0,0,0)" fill-opacity="1.0" stroke-width="1.0e-2"><g fill="rgb(0,0,0)" fill-opacity="1.0"><g fill="rgb(0,0,0)" fill-opacity="1.0"><path d="M 4688.27525513098,-21799.058723335005 l 107.57617968224622,53.28572102330145 l 725.8955570170519,-1546.6183067349812 l -150.6066515551447,-74.60000943262276 l -790.4412648263997,1514.646874121001 Z" /></g></g></g><g fill="rgb(0,0,0)" fill-opacity="1.0" stroke-width="1.0e-2"><g fill="rgb(0,0,0)" fill-opacity="1.0"><g fill="rgb(0,0,0)" fill-opacity="1.0"><path d="M 4793.909283025008,-19078.8484 l 171.37083466030617,-6.65484994797589 l -157.0452782921202,-2718.2138683506128 l -239.91916852442773,9.316789927164791 l 54.22277749593559,2722.2067783193997 Z" /></g></g></g><g fill="rgb(0,0,0)" fill-opacity="1.0" stroke-width="1.0e-2"><g fill="rgb(0,0,0)" fill-opacity="1.0"><g fill="rgb(0,0,0)" fill-opacity="1.0"><path d="M 5680.271938010987,-20632.407583704993 l 118.93113380781779,-16.352000219758338 l -238.1365502845665,-1467.603281183252 l -166.50358733094436,22.892800307658035 l 166.7778699998753,1477.4144813151106 Z" /></g></g></g><g fill="rgb(0,0,0)" fill-opacity="1.0" stroke-width="1.0e-2"><g fill="rgb(0,0,0)" fill-opacity="1.0"><g fill="rgb(0,0,0)" fill-opacity="1.0"><path d="M 5680.271938010987,-20632.407583704993 l 45.89954650364962,110.92895983808558 l 324.3831143835332,-173.19768094543906 l -64.25936510511019,-155.30054377331544 l -351.92284228572225,106.64030504258335 Z" /></g></g></g><g fill="rgb(0,0,0)" fill-opacity="1.0" stroke-width="1.0e-2"><g fill="rgb(0,0,0)" fill-opacity="1.0"><g fill="rgb(0,0,0)" fill-opacity="1.0"><path d="M 5680.271938010987,-20632.407583704993 l 69.63805155941463,97.78826246031895 l 1300.0612035437262,-970.0277669956922 l -97.49327218318103,-136.9035674444458 l -1341.8440344793744,911.3548095195001 Z" /></g></g></g><g fill="rgb(0,0,0)" fill-opacity="1.0" stroke-width="1.0e-2"><g fill="rgb(0,0,0)" fill-opacity="1.0"><g fill="rgb(0,0,0)" fill-opacity="1.0"><path d="M 4793.909283025008,-19078.8484 l 148.96088943312952,84.98766627747318 l 841.6743881560396,-1579.0554835882358 l -208.54524520638188,-118.98273278846318 l -931.0509218159168,1528.0628838217526 Z" /></g></g></g><g fill="rgb(0,0,0)" fill-opacity="1.0" stroke-width="1.0e-2"><g fill="rgb(0,0,0)" fill-opacity="1.0"><g fill="rgb(0,0,0)" fill-opacity="1.0"><path d="M 6961.291171656357,-20722.71315352 l 109.62440100375534,48.93355908339072 l 650.3483426796756,-1545.3126581530087 l -153.4741614052582,-68.50698271674628 l -716.1229832819281,1515.9525227029735 Z" /></g></g></g><g fill="rgb(0,0,0)" fill-opacity="1.0" stroke-width="1.0e-2"><g fill="rgb(0,0,0)" fill-opacity="1.0"><g fill="rgb(0,0,0)" fill-opacity="1.0"><path d="M 6961.291171656357,-20722.71315352 l 73.78807638652506,94.69594649812643 l 1185.0999798528128,-969.1000722070348 l -103.3033069411349,-132.57432509737555 l -1229.372825684728,912.2825043081575 Z" /></g></g></g><g fill="rgb(0,0,0)" fill-opacity="1.0" stroke-width="1.0e-2"><g fill="rgb(0,0,0)" fill-opacity="1.0"><g fill="rgb(0,0,0)" fill-opacity="1.0"><path d="M 6961.291171656357,-20722.71315352 l 16.379932263703267,118.92729005168076 l 1666.4893503480744,-265.88164426468575 l -22.931905169185484,-166.49820607235597 l -1676.3173097062954,194.5252702336802 Z" /></g></g></g><g fill="rgb(0,0,0)" fill-opacity="1.0" stroke-width="1.0e-2"><g fill="rgb(0,0,0)" fill-opacity="1.0"><g fill="rgb(0,0,0)" fill-opacity="1.0"><path d="M 4793.909283025008,-19078.8484 l 103.63803572864163,136.64335896891862 l 2136.2904779127557,-1684.8577612106747 l -145.0932500200979,-191.30070255648752 l -2198.473299349941,1602.871745829325 Z" /></g></g></g><g fill="rgb(0,0,0)" fill-opacity="1.0" stroke-width="1.0e-2"><g fill="rgb(0,0,0)" fill-opacity="1.0"><g fill="rgb(0,0,0)" fill-opacity="1.0"><path d="M 3000.0000000000005,-15478.0 l 219.29313635752942,109.24980707753275 l 1728.121342117749,-3633.6233421232573 l -307.0103909005411,-152.94972990854876 l -1859.6972239322668,3568.0734578767406 Z" /></g></g></g><g fill="rgb(0,0,0)" fill-opacity="1.0" stroke-width="1.0e-2"><g fill="rgb(0,0,0)" fill-opacity="1.0"><g fill="rgb(0,0,0)" fill-opacity="1.0"><path d="M 7187.0545200000015,-18922.71315352 l 111.13211836061964,-45.40544866732671 l -371.8450874808568,-814.887477378059 l -155.5849657048675,63.5676281342603 l 305.16581646448503,842.1307465784521 Z" /></g></g></g><g fill="rgb(0,0,0)" fill-opacity="1.0" stroke-width="1.0e-2"><g fill="rgb(0,0,0)" fill-opacity="1.0"><g fill="rgb(0,0,0)" fill-opacity="1.0"><path d="M 7187.0545200000015,-18922.71315352 l 111.45525066330265,44.606385188450076 l 600.773435483602,-1598.0437395347908 l -156.0373509286237,-62.448939263827924 l -667.6465858815836,1571.2799084217186 Z" /></g></g></g><g fill="rgb(0,0,0)" fill-opacity="1.0" stroke-width="1.0e-2"><g fill="rgb(0,0,0)" fill-opacity="1.0"><g fill="rgb(0,0,0)" fill-opacity="1.0"><path d="M 7187.0545200000015,-18922.71315352 l 28.412280947614818,116.63937924797938 l 1175.2500351737935,-323.34821375265165 l -39.77719332665947,-163.29513094716822 l -1192.2974037423637,253.3645862038611 Z" /></g></g></g><g fill="rgb(0,0,0)" fill-opacity="1.0" stroke-width="1.0e-2"><g fill="rgb(0,0,0)" fill-opacity="1.0"><g fill="rgb(0,0,0)" fill-opacity="1.0"><path d="M 6286.800000000001,-17278.8484 l 150.420357335478,82.37697553969338 l 855.1284127993567,-1668.57784618191 l -210.58850026966866,-115.32776575556636 l -945.3806272006441,1619.1516608580896 Z" /></g></g></g><g fill="rgb(0,0,0)" fill-opacity="1.0" stroke-width="1.0e-2"><g fill="rgb(0,0,0)" fill-opacity="1.0"><g fill="rgb(0,0,0)" fill-opacity="1.0"><path d="M 8447.30904,-18922.71315352 l 109.67949806030083,48.80993961521017 l 672.3076924544293,-1599.3048058628156 l -153.55129728441898,-68.3339154612986 l -738.115391290612,1570.0188420936938 Z" /></g></g></g><g fill="rgb(0,0,0)" fill-opacity="1.0" stroke-width="1.0e-2"><g fill="rgb(0,0,0)" fill-opacity="1.0"><g fill="rgb(0,0,0)" fill-opacity="1.0"><path d="M 8447.30904,-18922.71315352 l 70.25850576043558,97.3434377259764 l 1126.8251011158663,-857.7121432960485 l -98.36190806460945,-136.28081281636696 l -1168.980204572128,799.3060806604626 Z" /></g></g></g><g fill="rgb(0,0,0)" fill-opacity="1.0" stroke-width="1.0e-2"><g fill="rgb(0,0,0)" fill-opacity="1.0"><g fill="rgb(0,0,0)" fill-opacity="1.0"><path d="M 8447.30904,-18922.71315352 l 20.105412823533698,118.35444594604633 l 1691.4347377724207,-323.862733762071 l -28.14757795294645,-165.6962243244634 l -1703.4979854665416,252.85006619444175 Z" /></g></g></g><g fill="rgb(0,0,0)" fill-opacity="1.0" stroke-width="1.0e-2"><g fill="rgb(0,0,0)" fill-opacity="1.0"><g fill="rgb(0,0,0)" fill-opacity="1.0"><path d="M 6286.800000000001,-17278.8484 l 103.84696144707596,136.4846460163535 l 2129.354951565876,-1684.8101473249044 l -145.38574602590597,-191.07850442289782 l -2191.663128434122,1602.9193597150952 Z" /></g></g></g><g fill="rgb(0,0,0)" fill-opacity="1.0" stroke-width="1.0e-2"><g fill="rgb(0,0,0)" fill-opacity="1.0"><g fill="rgb(0,0,0)" fill-opacity="1.0"><path d="M 8627.563560000002,-16950.63315352 l 35.79548304138916,114.58920496204519 l 912.3535391215082,-322.7331614668692 l -50.11367625794446,-160.42488694686472 l -933.8308289463421,253.97963848964355 Z" /></g></g></g><g fill="rgb(0,0,0)" fill-opacity="1.0" stroke-width="1.0e-2"><g fill="rgb(0,0,0)" fill-opacity="1.0"><g fill="rgb(0,0,0)" fill-opacity="1.0"><path d="M 8627.563560000002,-16950.63315352 l 19.6281963227666,118.43452372140018 l 1734.0244873492447,-323.886757094675 l -27.47947485187251,-165.80833320996317 l -1745.8014051429054,252.82604286183778 Z" /></g></g></g><g fill="rgb(0,0,0)" fill-opacity="1.0" stroke-width="1.0e-2"><g fill="rgb(0,0,0)" fill-opacity="1.0"><g fill="rgb(0,0,0)" fill-opacity="1.0"><path d="M 8627.563560000002,-16950.63315352 l -82.35358209226433,87.34924164852418 l 1208.5117788516782,1089.8969635271878 l 115.29501492917188,-122.28893830793459 l -1159.0996295963214,-1142.3065085163016 Z" /></g></g></g><g fill="rgb(0,0,0)" fill-opacity="1.0" stroke-width="1.0e-2"><g fill="rgb(0,0,0)" fill-opacity="1.0"><g fill="rgb(0,0,0)" fill-opacity="1.0"><path d="M 6286.800000000001,-17278.8484 l -23.814279925239134,169.83854118439194 l 2347.907843977574,277.2636841246822 l 33.33999189533279,-237.77395765815163 l -2333.6192760224285,-379.16680883531444 Z" /></g></g></g><g fill="rgb(0,0,0)" fill-opacity="1.0" stroke-width="1.0e-2"><g fill="rgb(0,0,0)" fill-opacity="1.0"><g fill="rgb(0,0,0)" fill-opacity="1.0"><path d="M 3000.0000000000005,-15478.0 l 117.72405650084784,214.8628551448237 l 3251.4827830497466,-1865.307256543445 l -164.81367910118752,-300.80799720275536 l -3322.1172169502547,1736.389543456553 Z" /></g></g></g><g fill="rgb(0,0,0)" fill-opacity="1.0" stroke-width="1.0e-2"><g fill="rgb(0,0,0)" fill-opacity="1.0"><g fill="rgb(0,0,0)" fill-opacity="1.0"><path d="M 0.0,-10000.0 l 306.9803210928125,168.11627661161765 l 2907.9059036721565,-5528.434882983485 l -429.77244952993715,-235.3627872562647 l -3092.0940963278445,5427.565117016515 Z" /></g></g></g><g fill="rgb(0,0,0)" fill-opacity="1.0" stroke-width="1.0e-2"><g fill="rgb(0,0,0)" fill-opacity="1.0"><g fill="rgb(0,0,0)" fill-opacity="1.0"><path d="M 0.0,0.0 l 500.0,3.061616997868384e-14 l -150.0,-10000.0 h -700.0 l -150.0,10000.0 Z" /></g></g></g></g></g></g></g></svg>