<?xml version="1.0" encoding="UTF-8"?>
<!DOCTYPE svg PUBLIC "-//W3C//DTD SVG 1.1//EN"
    "http://www.w3.org/Graphics/SVG/1.1/DTD/svg11.dtd">
<svg xmlns="http://www.w3.org/2000/svg" xmlns:xlink="http://www.w3.org/1999/xlink" version="1.1" width="400.0" height="342.75366891508844" font-size="1" viewBox="0 0 400 343"><g><g fill="rgb(0,0,0)" fill-opacity="0.0"><g stroke="rgb(0,0,0)" stroke-opacity="1.0" stroke-width="1.0e-2" stroke-linecap="butt" stroke-linejoin="miter" font-size="1.0em" stroke-miterlimit="10.0"><g transform="matrix(148.83845948223203,0.0,0.0,148.83845948223203,200.0,342.75366891508844)"><g><path d="M 0.781750098474773,-0.965308276319448 l -3.64771296460284e-2,-2.9089540195521034e-2 " /></g><g><path d="M 0.781750098474773,-0.965308276319448 l -2.0243279732268762e-2,4.203560350085526e-2 " /></g><g><path d="M 0.8575604929260315,-0.9826115041438911 l -7.581039445125856e-2,1.730322782444305e-2 " /></g><g><path d="M 0.8912992924798129,-0.912552164975799 l -2.0243279732268762e-2,4.2035603500855265e-2 " /></g><g><path d="M 0.8912992924798129,-0.912552164975799 l 4.5486236670755145e-2,1.0381936694665788e-2 " /></g><g><path d="M 0.8575604929260315,-0.9826115041438911 l 3.373879955378133e-2,7.005933916809208e-2 " /></g><g><path d="M 0.913791825515667,-1.0993770694240446 l -5.623133258963546e-2,0.11676556528015351 " /></g><g><path d="M 1.0738812824882127,-1.000479017215214 l -2.0243279732268755e-2,4.2035603500855265e-2 " /></g><g><path d="M 1.0738812824882127,-1.000479017215214 l 4.548623667075515e-2,1.0381936694665785e-2 " /></g><g><path d="M 1.0401424829344312,-1.0705383563833062 l 3.373879955378135e-2,7.005933916809208e-2 " /></g><g><path d="M 1.1009376990111452,-1.1190209233758412 l 4.548623667075515e-2,1.0381936694665781e-2 " /></g><g><path d="M 1.1009376990111452,-1.1190209233758412 l -6.938893903907228e-18,-4.665599999999999e-2 " /></g><g><path d="M 1.0401424829344312,-1.0705383563833062 l 6.0795216076713975e-2,-4.848256699253513e-2 " /></g><g><path d="M 0.913791825515667,-1.0993770694240446 l 0.12635065741876433,2.8838713040738304e-2 " /></g><g><path d="M 0.8200729378662743,-1.293986344890967 l 9.371888764939261e-2,0.19460927546692247 " /></g><g><path d="M 1.1490379950519143,-1.3297620898836229 l -2.024327973226876e-2,4.203560350085525e-2 " /></g><g><path d="M 1.1490379950519143,-1.3297620898836229 l 4.548623667075513e-2,1.0381936694665791e-2 " /></g><g><path d="M 1.115299195498133,-1.399821429051715 l 3.3738799553781326e-2,7.005933916809207e-2 " /></g><g><path d="M 1.176094411574847,-1.44830399604425 l 4.548623667075514e-2,1.0381936694665791e-2 " /></g><g><path d="M 1.176094411574847,-1.44830399604425 l 6.938893903907228e-18,-4.6655999999999975e-2 " /></g><g><path d="M 1.115299195498133,-1.399821429051715 l 6.079521607671397e-2,-4.84825669925351e-2 " /></g><g><path d="M 0.9889485380793688,-1.4286601420924534 l 0.1263506574187643,2.8838713040738317e-2 " /></g><g><path d="M 1.0497437541560828,-1.6067427090849884 l 4.5486236670755145e-2,1.0381936694665785e-2 " /></g><g><path d="M 1.0497437541560828,-1.6067427090849884 l -3.469446951953614e-18,-4.665599999999998e-2 " /></g><g><path d="M 0.9889485380793688,-1.5582601420924533 l 6.0795216076713975e-2,-4.8482566992535114e-2 " /></g><g><path d="M 0.9281533220026548,-1.6067427090849884 l 3.469446951953614e-18,-4.665599999999998e-2 " /></g><g><path d="M 0.9281533220026548,-1.6067427090849884 l -4.5486236670755145e-2,1.0381936694665785e-2 " /></g><g><path d="M 0.9889485380793688,-1.5582601420924533 l -6.0795216076713975e-2,-4.8482566992535114e-2 " /></g><g><path d="M 0.9889485380793688,-1.4286601420924534 v -0.12959999999999997 " /></g><g><path d="M 0.8200729378662743,-1.293986344890967 l 0.1688756002130944,-0.13467379720148642 " /></g><g><path d="M 0.4690988894808178,-1.3740938811152401 l 0.3509740483854565,8.010753622427311e-2 " /></g><g><path d="M 0.798063946666458,-1.7698696261078959 l -2.0243279732268773e-2,4.2035603500855265e-2 " /></g><g><path d="M 0.798063946666458,-1.7698696261078959 l 4.548623667075516e-2,1.0381936694665795e-2 " /></g><g><path d="M 0.7643251471126766,-1.839928965275988 l 3.373879955378134e-2,7.00593391680921e-2 " /></g><g><path d="M 0.8251203631893906,-1.888411532268523 l 4.548623667075516e-2,1.0381936694665791e-2 " /></g><g><path d="M 0.8251203631893906,-1.888411532268523 l -3.469446951953614e-18,-4.665599999999999e-2 " /></g><g><path d="M 0.7643251471126766,-1.839928965275988 l 6.079521607671398e-2,-4.848256699253512e-2 " /></g><g><path d="M 0.6379744896939122,-1.8687676783167264 l 0.12635065741876433,2.883871304073831e-2 " /></g><g><path d="M 0.6987697057706262,-2.0468502453092614 l 4.5486236670755145e-2,1.0381936694665798e-2 " /></g><g><path d="M 0.6987697057706262,-2.0468502453092614 l 6.938893903907228e-18,-4.665599999999998e-2 " /></g><g><path d="M 0.6379744896939122,-1.9983676783167263 l 6.079521607671398e-2,-4.848256699253511e-2 " /></g><g><path d="M 0.5771792736171982,-2.0468502453092614 l 6.938893903907228e-18,-4.665599999999998e-2 " /></g><g><path d="M 0.5771792736171982,-2.0468502453092614 l -4.548623667075515e-2,1.0381936694665785e-2 " /></g><g><path d="M 0.6379744896939122,-1.9983676783167263 l -6.079521607671397e-2,-4.848256699253512e-2 " /></g><g><path d="M 0.6379744896939122,-1.8687676783167264 l 1.3877787807814457e-17,-0.12959999999999997 " /></g><g><path d="M 0.4690988894808178,-1.73409388111524 l 0.16887560021309442,-0.13467379720148645 " /></g><g><path d="M 0.3610185053444373,-2.0468502453092614 l 4.548623667075515e-2,1.0381936694665785e-2 " /></g><g><path d="M 0.3610185053444373,-2.0468502453092614 l -6.938893903907228e-18,-4.665599999999998e-2 " /></g><g><path d="M 0.30022328926772335,-1.9983676783167263 l 6.079521607671397e-2,-4.848256699253512e-2 " /></g><g><path d="M 0.23942807319100937,-2.0468502453092614 l -6.938893903907228e-18,-4.665599999999998e-2 " /></g><g><path d="M 0.23942807319100937,-2.0468502453092614 l -4.5486236670755145e-2,1.0381936694665798e-2 " /></g><g><path d="M 0.30022328926772335,-1.9983676783167263 l -6.079521607671398e-2,-4.848256699253511e-2 " /></g><g><path d="M 0.30022328926772335,-1.8687676783167264 l -1.3877787807814457e-17,-0.12959999999999997 " /></g><g><path d="M 0.11307741577224503,-1.888411532268523 l 3.469446951953614e-18,-4.665599999999999e-2 " /></g><g><path d="M 0.11307741577224503,-1.888411532268523 l -4.548623667075516e-2,1.0381936694665791e-2 " /></g><g><path d="M 0.17387263184895901,-1.839928965275988 l -6.079521607671398e-2,-4.848256699253512e-2 " /></g><g><path d="M 0.14013383229517767,-1.7698696261078959 l -4.548623667075516e-2,1.0381936694665795e-2 " /></g><g><path d="M 0.14013383229517767,-1.7698696261078959 l 2.0243279732268773e-2,4.2035603500855265e-2 " /></g><g><path d="M 0.17387263184895901,-1.839928965275988 l -3.373879955378134e-2,7.00593391680921e-2 " /></g><g><path d="M 0.30022328926772335,-1.8687676783167264 l -0.12635065741876433,2.883871304073831e-2 " /></g><g><path d="M 0.4690988894808178,-1.73409388111524 l -0.16887560021309442,-0.13467379720148645 " /></g><g><path d="M 0.4690988894808178,-1.3740938811152401 v -0.36 " /></g><g><path d="M 0.0,-1.0 l 0.4690988894808178,-0.37409388111524017 " /></g><g><path d="M -0.14013383229517767,-1.7698696261078959 l -2.0243279732268773e-2,4.2035603500855265e-2 " /></g><g><path d="M -0.14013383229517767,-1.7698696261078959 l 4.548623667075516e-2,1.0381936694665795e-2 " /></g><g><path d="M -0.17387263184895901,-1.839928965275988 l 3.373879955378134e-2,7.00593391680921e-2 " /></g><g><path d="M -0.11307741577224503,-1.888411532268523 l 4.548623667075516e-2,1.0381936694665791e-2 " /></g><g><path d="M -0.11307741577224503,-1.888411532268523 l -3.469446951953614e-18,-4.665599999999999e-2 " /></g><g><path d="M -0.17387263184895901,-1.839928965275988 l 6.079521607671398e-2,-4.848256699253512e-2 " /></g><g><path d="M -0.30022328926772335,-1.8687676783167264 l 0.12635065741876433,2.883871304073831e-2 " /></g><g><path d="M -0.23942807319100937,-2.0468502453092614 l 4.5486236670755145e-2,1.0381936694665798e-2 " /></g><g><path d="M -0.23942807319100937,-2.0468502453092614 l 6.938893903907228e-18,-4.665599999999998e-2 " /></g><g><path d="M -0.30022328926772335,-1.9983676783167263 l 6.079521607671398e-2,-4.848256699253511e-2 " /></g><g><path d="M -0.3610185053444373,-2.0468502453092614 l 6.938893903907228e-18,-4.665599999999998e-2 " /></g><g><path d="M -0.3610185053444373,-2.0468502453092614 l -4.548623667075515e-2,1.0381936694665785e-2 " /></g><g><path d="M -0.30022328926772335,-1.9983676783167263 l -6.079521607671397e-2,-4.848256699253512e-2 " /></g><g><path d="M -0.30022328926772335,-1.8687676783167264 l 1.3877787807814457e-17,-0.12959999999999997 " /></g><g><path d="M -0.4690988894808178,-1.73409388111524 l 0.16887560021309442,-0.13467379720148645 " /></g><g><path d="M -0.5771792736171982,-2.0468502453092614 l 4.548623667075515e-2,1.0381936694665785e-2 " /></g><g><path d="M -0.5771792736171982,-2.0468502453092614 l -6.938893903907228e-18,-4.665599999999998e-2 " /></g><g><path d="M -0.6379744896939122,-1.9983676783167263 l 6.079521607671397e-2,-4.848256699253512e-2 " /></g><g><path d="M -0.6987697057706262,-2.0468502453092614 l -6.938893903907228e-18,-4.665599999999998e-2 " /></g><g><path d="M -0.6987697057706262,-2.0468502453092614 l -4.5486236670755145e-2,1.0381936694665798e-2 " /></g><g><path d="M -0.6379744896939122,-1.9983676783167263 l -6.079521607671398e-2,-4.848256699253511e-2 " /></g><g><path d="M -0.6379744896939122,-1.8687676783167264 l -1.3877787807814457e-17,-0.12959999999999997 " /></g><g><path d="M -0.8251203631893906,-1.888411532268523 l 3.469446951953614e-18,-4.665599999999999e-2 " /></g><g><path d="M -0.8251203631893906,-1.888411532268523 l -4.548623667075516e-2,1.0381936694665791e-2 " /></g><g><path d="M -0.7643251471126766,-1.839928965275988 l -6.079521607671398e-2,-4.848256699253512e-2 " /></g><g><path d="M -0.798063946666458,-1.7698696261078959 l -4.548623667075516e-2,1.0381936694665795e-2 " /></g><g><path d="M -0.798063946666458,-1.7698696261078959 l 2.0243279732268773e-2,4.2035603500855265e-2 " /></g><g><path d="M -0.7643251471126766,-1.839928965275988 l -3.373879955378134e-2,7.00593391680921e-2 " /></g><g><path d="M -0.6379744896939122,-1.8687676783167264 l -0.12635065741876433,2.883871304073831e-2 " /></g><g><path d="M -0.4690988894808178,-1.73409388111524 l -0.16887560021309442,-0.13467379720148645 " /></g><g><path d="M -0.4690988894808178,-1.3740938811152401 v -0.36 " /></g><g><path d="M -0.9281533220026548,-1.6067427090849884 l 4.5486236670755145e-2,1.0381936694665785e-2 " /></g><g><path d="M -0.9281533220026548,-1.6067427090849884 l -3.469446951953614e-18,-4.665599999999998e-2 " /></g><g><path d="M -0.9889485380793688,-1.5582601420924533 l 6.0795216076713975e-2,-4.8482566992535114e-2 " /></g><g><path d="M -1.0497437541560828,-1.6067427090849884 l 3.469446951953614e-18,-4.665599999999998e-2 " /></g><g><path d="M -1.0497437541560828,-1.6067427090849884 l -4.5486236670755145e-2,1.0381936694665785e-2 " /></g><g><path d="M -0.9889485380793688,-1.5582601420924533 l -6.0795216076713975e-2,-4.8482566992535114e-2 " /></g><g><path d="M -0.9889485380793688,-1.4286601420924534 v -0.12959999999999997 " /></g><g><path d="M -1.176094411574847,-1.44830399604425 l -6.938893903907228e-18,-4.6655999999999975e-2 " /></g><g><path d="M -1.176094411574847,-1.44830399604425 l -4.548623667075514e-2,1.0381936694665791e-2 " /></g><g><path d="M -1.115299195498133,-1.399821429051715 l -6.079521607671397e-2,-4.84825669925351e-2 " /></g><g><path d="M -1.1490379950519143,-1.3297620898836229 l -4.548623667075513e-2,1.0381936694665791e-2 " /></g><g><path d="M -1.1490379950519143,-1.3297620898836229 l 2.024327973226876e-2,4.203560350085525e-2 " /></g><g><path d="M -1.115299195498133,-1.399821429051715 l -3.3738799553781326e-2,7.005933916809207e-2 " /></g><g><path d="M -0.9889485380793688,-1.4286601420924534 l -0.1263506574187643,2.8838713040738317e-2 " /></g><g><path d="M -0.8200729378662743,-1.293986344890967 l -0.1688756002130944,-0.13467379720148642 " /></g><g><path d="M -1.1009376990111452,-1.1190209233758412 l 6.938893903907228e-18,-4.665599999999999e-2 " /></g><g><path d="M -1.1009376990111452,-1.1190209233758412 l -4.548623667075515e-2,1.0381936694665781e-2 " /></g><g><path d="M -1.0401424829344312,-1.0705383563833062 l -6.0795216076713975e-2,-4.848256699253513e-2 " /></g><g><path d="M -1.0738812824882127,-1.000479017215214 l -4.548623667075515e-2,1.0381936694665785e-2 " /></g><g><path d="M -1.0738812824882127,-1.000479017215214 l 2.0243279732268755e-2,4.2035603500855265e-2 " /></g><g><path d="M -1.0401424829344312,-1.0705383563833062 l -3.373879955378135e-2,7.005933916809208e-2 " /></g><g><path d="M -0.913791825515667,-1.0993770694240446 l -0.12635065741876433,2.8838713040738304e-2 " /></g><g><path d="M -0.8912992924798129,-0.912552164975799 l -4.5486236670755145e-2,1.0381936694665788e-2 " /></g><g><path d="M -0.8912992924798129,-0.912552164975799 l 2.0243279732268762e-2,4.2035603500855265e-2 " /></g><g><path d="M -0.8575604929260315,-0.9826115041438911 l -3.373879955378133e-2,7.005933916809208e-2 " /></g><g><path d="M -0.781750098474773,-0.965308276319448 l 2.0243279732268762e-2,4.203560350085526e-2 " /></g><g><path d="M -0.781750098474773,-0.965308276319448 l 3.64771296460284e-2,-2.9089540195521034e-2 " /></g><g><path d="M -0.8575604929260315,-0.9826115041438911 l 7.581039445125856e-2,1.730322782444305e-2 " /></g><g><path d="M -0.913791825515667,-1.0993770694240446 l 5.623133258963546e-2,0.11676556528015351 " /></g><g><path d="M -0.8200729378662743,-1.293986344890967 l -9.371888764939261e-2,0.19460927546692247 " /></g><g><path d="M -0.4690988894808178,-1.3740938811152401 l -0.3509740483854565,8.010753622427311e-2 " /></g><g><path d="M 0.0,-1.0 l -0.4690988894808178,-0.37409388111524017 " /></g><g><path d="M 0.0,0.0 v -1.0 " /></g></g></g></g></g></svg>