<?xml version="1.0" encoding="UTF-8"?>
<!DOCTYPE svg PUBLIC "-//W3C//DTD SVG 1.1//EN"
    "http://www.w3.org/Graphics/SVG/1.1/DTD/svg11.dtd">
<svg xmlns="http://www.w3.org/2000/svg" xmlns:xlink="http://www.w3.org/1999/xlink" version="1.1" width="400.0" height="342.4417760247741" font-size="1" viewBox="0 0 400 342"><g><g fill="rgb(0,0,0)" fill-opacity="0.0"><g stroke="rgb(0,0,0)" stroke-opacity="1.0" stroke-width="1.0e-2" stroke-linecap="butt" stroke-linejoin="miter" font-size="1.0em" stroke-miterlimit="10.0"><g transform="matrix(1.4870302210685749e-2,0.0,0.0,1.4870302210685749e-2,200.0,342.4417760247741)"><g fill="rgb(0,0,0)" fill-opacity="1.0" stroke-width="1.0e-2"><g fill="rgb(0,0,0)" fill-opacity="1.0"><g fill="rgb(0,0,0)" fill-opacity="1.0"><path d="M -7817.500984747729,-9653.08276319448 l 36.67647584943916,45.990846040440374 l 359.26931070378214,-297.7946738722494 l -62.3489801858741,-78.1831482468042 l -370.27328221678636,283.99613003817285 Z" /></g></g></g><g fill="rgb(0,0,0)" fill-opacity="1.0" stroke-width="1.0e-2"><g fill="rgb(0,0,0)" fill-opacity="1.0"><g fill="rgb(0,0,0)" fill-opacity="1.0"><path d="M -7817.500984747729,-9653.08276319448 l -52.99904316992615,25.522994011720584 l 210.3833970974929,416.5272279527089 l 90.09688679024111,-43.38837391175548 l -194.4821975478817,-424.1848420643946 Z" /></g></g></g><g fill="rgb(0,0,0)" fill-opacity="1.0" stroke-width="1.0e-2"><g fill="rgb(0,0,0)" fill-opacity="1.0"><g fill="rgb(0,0,0)" fill-opacity="1.0"><path d="M -8575.604929260315,-9826.11504143891 l -18.699546685018504,81.92806710019977 l 763.7138085180914,148.45385811437154 l 26.179365359026633,-114.69929394028077 l -752.494080507081,-197.6106983744903 Z" /></g></g></g><g fill="rgb(0,0,0)" fill-opacity="1.0" stroke-width="1.0e-2"><g fill="rgb(0,0,0)" fill-opacity="1.0"><g fill="rgb(0,0,0)" fill-opacity="1.0"><path d="M -8912.992924798127,-9125.52164975799 l -52.99904316992615,25.522994011720584 l 210.3833970974938,416.5272279527089 l 90.09688679024111,-43.38837391175548 l -194.4821975478826,-424.1848420643946 Z" /></g></g></g><g fill="rgb(0,0,0)" fill-opacity="1.0" stroke-width="1.0e-2"><g fill="rgb(0,0,0)" fill-opacity="1.0"><g fill="rgb(0,0,0)" fill-opacity="1.0"><path d="M -8912.992924798127,-9125.52164975799 l -13.089682679512407,-57.349646970140384 l -452.8987307258558,112.42261830770803 l 22.252093395632983,97.49279121818108 l 456.8260026892476,-95.21611558560835 Z" /></g></g></g><g fill="rgb(0,0,0)" fill-opacity="1.0" stroke-width="1.0e-2"><g fill="rgb(0,0,0)" fill-opacity="1.0"><g fill="rgb(0,0,0)" fill-opacity="1.0"><path d="M -8575.604929260315,-9826.11504143891 l -75.71291881417892,-36.46142001674343 l -314.6741198935597,711.5318176859437 l 105.9980863398523,51.04598802344117 l 360.1018711820652,-689.654965675898 Z" /></g></g></g><g fill="rgb(0,0,0)" fill-opacity="1.0" stroke-width="1.0e-2"><g fill="rgb(0,0,0)" fill-opacity="1.0"><g fill="rgb(0,0,0)" fill-opacity="1.0"><path d="M -9137.91825515667,-10993.770694240446 l -108.16131259168469,52.087742881063605 l 594.7617196738611,1152.0293299372152 l 151.42583762835784,-72.92284003348686 l -529.8649321188495,-1183.2819756658555 Z" /></g></g></g><g fill="rgb(0,0,0)" fill-opacity="1.0" stroke-width="1.0e-2"><g fill="rgb(0,0,0)" fill-opacity="1.0"><g fill="rgb(0,0,0)" fill-opacity="1.0"><path d="M -10738.812824882127,-10004.790172152141 l -52.99904316992615,25.522994011720584 l 210.3833970974938,416.5272279527089 l 90.09688679024111,-43.38837391175548 l -194.4821975478826,-424.1848420643946 Z" /></g></g></g><g fill="rgb(0,0,0)" fill-opacity="1.0" stroke-width="1.0e-2"><g fill="rgb(0,0,0)" fill-opacity="1.0"><g fill="rgb(0,0,0)" fill-opacity="1.0"><path d="M -10738.812824882127,-10004.790172152141 l -13.089682679512407,-57.349646970140384 l -452.8987307258558,112.42261830770803 l 22.252093395632983,97.49279121818108 l 456.8260026892476,-95.21611558560835 Z" /></g></g></g><g fill="rgb(0,0,0)" fill-opacity="1.0" stroke-width="1.0e-2"><g fill="rgb(0,0,0)" fill-opacity="1.0"><g fill="rgb(0,0,0)" fill-opacity="1.0"><path d="M -10401.424829344312,-10705.383563833062 l -75.71291881417892,-36.46142001674343 l -314.6741198935615,711.5318176859437 l 105.9980863398523,51.04598802344117 l 360.10187118206704,-689.654965675898 Z" /></g></g></g><g fill="rgb(0,0,0)" fill-opacity="1.0" stroke-width="1.0e-2"><g fill="rgb(0,0,0)" fill-opacity="1.0"><g fill="rgb(0,0,0)" fill-opacity="1.0"><path d="M -11009.376990111452,-11190.209233758413 l -13.089682679512407,-57.349646970140384 l -452.8987307258558,112.42261830770803 l 22.252093395632983,97.49279121818108 l 456.8260026892476,-95.21611558560835 Z" /></g></g></g><g fill="rgb(0,0,0)" fill-opacity="1.0" stroke-width="1.0e-2"><g fill="rgb(0,0,0)" fill-opacity="1.0"><g fill="rgb(0,0,0)" fill-opacity="1.0"><path d="M -11009.376990111452,-11190.209233758413 h 58.824500000000626 l -8.824500000000626,-466.5599999999995 h -100.0 l -8.824500000000626,466.5599999999995 Z" /></g></g></g><g fill="rgb(0,0,0)" fill-opacity="1.0" stroke-width="1.0e-2"><g fill="rgb(0,0,0)" fill-opacity="1.0"><g fill="rgb(0,0,0)" fill-opacity="1.0"><path d="M -10401.424829344312,-10705.383563833062 l 52.394965499199316,-65.70120862920157 l -623.6706504168997,-465.11530733658947 l -73.35295169887831,91.98169208088075 l 592.2336711173793,504.53603251411187 Z" /></g></g></g><g fill="rgb(0,0,0)" fill-opacity="1.0" stroke-width="1.0e-2"><g fill="rgb(0,0,0)" fill-opacity="1.0"><g fill="rgb(0,0,0)" fill-opacity="1.0"><path d="M -9137.91825515667,-10993.770694240446 l -26.713638121455006,-117.04009585742824 l -1255.492482751206,323.49915916461214 l 37.39909337003701,163.85613420039954 l 1271.520665624079,-253.2751016501552 Z" /></g></g></g><g fill="rgb(0,0,0)" fill-opacity="1.0" stroke-width="1.0e-2"><g fill="rgb(0,0,0)" fill-opacity="1.0"><g fill="rgb(0,0,0)" fill-opacity="1.0"><path d="M -8200.729378662743,-12939.863448909671 l -154.5161608452654,-74.411061258661 l -890.834028240346,1968.416073046823 l 216.32262518336938,104.17548576212721 l 983.5437247475065,-1923.7694362916282 Z" /></g></g></g><g fill="rgb(0,0,0)" fill-opacity="1.0" stroke-width="1.0e-2"><g fill="rgb(0,0,0)" fill-opacity="1.0"><g fill="rgb(0,0,0)" fill-opacity="1.0"><path d="M -11490.379950519145,-13297.620898836232 l -52.99904316992615,25.522994011720584 l 210.3833970974938,416.5272279527089 l 90.09688679024111,-43.38837391175548 l -194.4821975478826,-424.1848420643946 Z" /></g></g></g><g fill="rgb(0,0,0)" fill-opacity="1.0" stroke-width="1.0e-2"><g fill="rgb(0,0,0)" fill-opacity="1.0"><g fill="rgb(0,0,0)" fill-opacity="1.0"><path d="M -11490.379950519145,-13297.620898836232 l -13.089682679512407,-57.349646970140384 l -452.8987307258558,112.42261830770803 l 22.252093395632983,97.49279121818108 l 456.8260026892476,-95.21611558560835 Z" /></g></g></g><g fill="rgb(0,0,0)" fill-opacity="1.0" stroke-width="1.0e-2"><g fill="rgb(0,0,0)" fill-opacity="1.0"><g fill="rgb(0,0,0)" fill-opacity="1.0"><path d="M -11152.991954981331,-13998.214290517153 l -75.71291881417892,-36.46142001674343 l -314.6741198935615,711.5318176859437 l 105.9980863398523,51.04598802344117 l 360.10187118206704,-689.654965675898 Z" /></g></g></g><g fill="rgb(0,0,0)" fill-opacity="1.0" stroke-width="1.0e-2"><g fill="rgb(0,0,0)" fill-opacity="1.0"><g fill="rgb(0,0,0)" fill-opacity="1.0"><path d="M -11760.94411574847,-14483.039960442504 l -13.089682679512407,-57.349646970140384 l -452.8987307258558,112.42261830770803 l 22.252093395632983,97.49279121818108 l 456.8260026892476,-95.21611558560835 Z" /></g></g></g><g fill="rgb(0,0,0)" fill-opacity="1.0" stroke-width="1.0e-2"><g fill="rgb(0,0,0)" fill-opacity="1.0"><g fill="rgb(0,0,0)" fill-opacity="1.0"><path d="M -11760.94411574847,-14483.039960442504 h 58.824500000000626 l -8.824500000000626,-466.5599999999995 h -100.0 l -8.824500000000626,466.5599999999995 Z" /></g></g></g><g fill="rgb(0,0,0)" fill-opacity="1.0" stroke-width="1.0e-2"><g fill="rgb(0,0,0)" fill-opacity="1.0"><g fill="rgb(0,0,0)" fill-opacity="1.0"><path d="M -11152.991954981331,-13998.214290517153 l 52.394965499199316,-65.70120862920157 l -623.6706504168997,-465.11530733658947 l -73.35295169887831,91.98169208088075 l 592.2336711173793,504.53603251411187 Z" /></g></g></g><g fill="rgb(0,0,0)" fill-opacity="1.0" stroke-width="1.0e-2"><g fill="rgb(0,0,0)" fill-opacity="1.0"><g fill="rgb(0,0,0)" fill-opacity="1.0"><path d="M -9889.485380793687,-14286.601420924537 l -26.713638121455006,-117.04009585742824 l -1255.4924827512077,323.49915916461214 l 37.39909337003701,163.85613420039954 l 1271.5206656240807,-253.2751016501552 Z" /></g></g></g><g fill="rgb(0,0,0)" fill-opacity="1.0" stroke-width="1.0e-2"><g fill="rgb(0,0,0)" fill-opacity="1.0"><g fill="rgb(0,0,0)" fill-opacity="1.0"><path d="M -10497.437541560827,-16067.427090849887 l -13.089682679512407,-57.349646970140384 l -452.8987307258558,112.42261830770803 l 22.252093395632983,97.49279121818108 l 456.8260026892476,-95.21611558560835 Z" /></g></g></g><g fill="rgb(0,0,0)" fill-opacity="1.0" stroke-width="1.0e-2"><g fill="rgb(0,0,0)" fill-opacity="1.0"><g fill="rgb(0,0,0)" fill-opacity="1.0"><path d="M -10497.437541560827,-16067.427090849887 h 58.824500000000626 l -8.824500000000626,-466.5600000000013 h -100.0 l -8.824500000000626,466.5600000000013 Z" /></g></g></g><g fill="rgb(0,0,0)" fill-opacity="1.0" stroke-width="1.0e-2"><g fill="rgb(0,0,0)" fill-opacity="1.0"><g fill="rgb(0,0,0)" fill-opacity="1.0"><path d="M -9889.485380793687,-15582.601420924537 l 52.394965499199316,-65.70120862920157 l -623.6706504168997,-465.11530733658947 l -73.35295169887831,91.98169208088075 l 592.2336711173793,504.53603251411187 Z" /></g></g></g><g fill="rgb(0,0,0)" fill-opacity="1.0" stroke-width="1.0e-2"><g fill="rgb(0,0,0)" fill-opacity="1.0"><g fill="rgb(0,0,0)" fill-opacity="1.0"><path d="M -9281.533220026547,-16067.427090849887 h 58.824500000000626 l -8.824500000000626,-466.5600000000013 h -100.0 l -8.824500000000626,466.5600000000013 Z" /></g></g></g><g fill="rgb(0,0,0)" fill-opacity="1.0" stroke-width="1.0e-2"><g fill="rgb(0,0,0)" fill-opacity="1.0"><g fill="rgb(0,0,0)" fill-opacity="1.0"><path d="M -9281.533220026547,-16067.427090849887 l -13.089682679512407,57.349646970140384 l 456.8260026892476,95.21611558560835 l 22.252093395632983,-97.49279121818108 l -452.8987307258558,-112.42261830770803 Z" /></g></g></g><g fill="rgb(0,0,0)" fill-opacity="1.0" stroke-width="1.0e-2"><g fill="rgb(0,0,0)" fill-opacity="1.0"><g fill="rgb(0,0,0)" fill-opacity="1.0"><path d="M -9889.485380793687,-15582.601420924537 l 52.394965499199316,65.70120862920157 l 592.2336711173793,-504.53603251411187 l -73.35295169887831,-91.98169208088075 l -623.6706504168997,465.11530733658947 Z" /></g></g></g><g fill="rgb(0,0,0)" fill-opacity="1.0" stroke-width="1.0e-2"><g fill="rgb(0,0,0)" fill-opacity="1.0"><g fill="rgb(0,0,0)" fill-opacity="1.0"><path d="M -9889.485380793687,-14286.601420924537 h 120.04999999999927 l -36.01499999999942,-1296.0 h -168.0699999999997 l -36.01499999999942,1296.0 Z" /></g></g></g><g fill="rgb(0,0,0)" fill-opacity="1.0" stroke-width="1.0e-2"><g fill="rgb(0,0,0)" fill-opacity="1.0"><g fill="rgb(0,0,0)" fill-opacity="1.0"><path d="M -8200.729378662743,-12939.863448909671 l 106.9285010187732,-134.0840992432677 l -1720.834552436575,-1306.5127422418846 l -149.69990142628376,187.71773894057333 l 1656.6774518253133,1386.9632017878466 Z" /></g></g></g><g fill="rgb(0,0,0)" fill-opacity="1.0" stroke-width="1.0e-2"><g fill="rgb(0,0,0)" fill-opacity="1.0"><g fill="rgb(0,0,0)" fill-opacity="1.0"><path d="M -4690.988894808178,-13740.938811152402 l -54.51762881929699,-238.85733848454765 l -3493.385195208777,872.7325637880967 l 76.32468034701651,334.4002738783638 l 3526.0957725003545,-729.4181606973652 Z" /></g></g></g><g fill="rgb(0,0,0)" fill-opacity="1.0" stroke-width="1.0e-2"><g fill="rgb(0,0,0)" fill-opacity="1.0"><g fill="rgb(0,0,0)" fill-opacity="1.0"><path d="M -7980.639466664578,-17698.696261078963 l -52.99904316992615,25.522994011720584 l 210.3833970974929,416.52722795271256 l 90.09688679024111,-43.38837391175912 l -194.4821975478817,-424.1848420643946 Z" /></g></g></g><g fill="rgb(0,0,0)" fill-opacity="1.0" stroke-width="1.0e-2"><g fill="rgb(0,0,0)" fill-opacity="1.0"><g fill="rgb(0,0,0)" fill-opacity="1.0"><path d="M -7980.639466664578,-17698.696261078963 l -13.089682679513317,-57.349646970138565 l -452.89873072585215,112.4226183077044 l 22.252093395629345,97.49279121818108 l 456.82600268924944,-95.21611558560835 Z" /></g></g></g><g fill="rgb(0,0,0)" fill-opacity="1.0" stroke-width="1.0e-2"><g fill="rgb(0,0,0)" fill-opacity="1.0"><g fill="rgb(0,0,0)" fill-opacity="1.0"><path d="M -7643.251471126765,-18399.289652759882 l -75.71291881417983,-36.46142001674525 l -314.6741198935597,711.5318176859437 l 105.9980863398523,51.04598802344117 l 360.10187118206704,-689.6549656758943 Z" /></g></g></g><g fill="rgb(0,0,0)" fill-opacity="1.0" stroke-width="1.0e-2"><g fill="rgb(0,0,0)" fill-opacity="1.0"><g fill="rgb(0,0,0)" fill-opacity="1.0"><path d="M -8251.203631893904,-18884.115322685233 l -13.089682679512407,-57.349646970138565 l -452.89873072585397,112.4226183077044 l 22.252093395629345,97.49279121818108 l 456.82600268924944,-95.21611558560835 Z" /></g></g></g><g fill="rgb(0,0,0)" fill-opacity="1.0" stroke-width="1.0e-2"><g fill="rgb(0,0,0)" fill-opacity="1.0"><g fill="rgb(0,0,0)" fill-opacity="1.0"><path d="M -8251.203631893904,-18884.115322685233 h 58.824500000000626 l -8.824500000000626,-466.5600000000013 h -100.0 l -8.824500000000626,466.5600000000013 Z" /></g></g></g><g fill="rgb(0,0,0)" fill-opacity="1.0" stroke-width="1.0e-2"><g fill="rgb(0,0,0)" fill-opacity="1.0"><g fill="rgb(0,0,0)" fill-opacity="1.0"><path d="M -7643.251471126765,-18399.289652759882 l 52.394965499198406,-65.70120862920157 l -623.6706504168988,-465.11530733658947 l -73.35295169887831,91.98169208088075 l 592.2336711173803,504.53603251411187 Z" /></g></g></g><g fill="rgb(0,0,0)" fill-opacity="1.0" stroke-width="1.0e-2"><g fill="rgb(0,0,0)" fill-opacity="1.0"><g fill="rgb(0,0,0)" fill-opacity="1.0"><path d="M -6379.744896939122,-18687.676783167266 l -26.713638121455915,-117.04009585742824 l -1255.492482751206,323.49915916461396 l 37.39909337003701,163.8561342003959 l 1271.5206656240807,-253.27510165015337 Z" /></g></g></g><g fill="rgb(0,0,0)" fill-opacity="1.0" stroke-width="1.0e-2"><g fill="rgb(0,0,0)" fill-opacity="1.0"><g fill="rgb(0,0,0)" fill-opacity="1.0"><path d="M -6987.697057706261,-20468.502453092617 l -13.089682679513317,-57.349646970138565 l -452.89873072585397,112.4226183077044 l 22.252093395631164,97.49279121818108 l 456.82600268924944,-95.21611558560835 Z" /></g></g></g><g fill="rgb(0,0,0)" fill-opacity="1.0" stroke-width="1.0e-2"><g fill="rgb(0,0,0)" fill-opacity="1.0"><g fill="rgb(0,0,0)" fill-opacity="1.0"><path d="M -6987.697057706261,-20468.502453092617 h 58.824499999999716 l -8.824499999999716,-466.5600000000013 h -100.0 l -8.824499999999716,466.5600000000013 Z" /></g></g></g><g fill="rgb(0,0,0)" fill-opacity="1.0" stroke-width="1.0e-2"><g fill="rgb(0,0,0)" fill-opacity="1.0"><g fill="rgb(0,0,0)" fill-opacity="1.0"><path d="M -6379.744896939122,-19983.676783167266 l 52.394965499198406,-65.70120862920157 l -623.6706504168988,-465.11530733658947 l -73.35295169887831,91.98169208088075 l 592.2336711173803,504.53603251411187 Z" /></g></g></g><g fill="rgb(0,0,0)" fill-opacity="1.0" stroke-width="1.0e-2"><g fill="rgb(0,0,0)" fill-opacity="1.0"><g fill="rgb(0,0,0)" fill-opacity="1.0"><path d="M -5771.792736171982,-20468.502453092617 h 58.824499999999716 l -8.824499999999716,-466.5600000000013 h -100.0 l -8.824499999999716,466.5600000000013 Z" /></g></g></g><g fill="rgb(0,0,0)" fill-opacity="1.0" stroke-width="1.0e-2"><g fill="rgb(0,0,0)" fill-opacity="1.0"><g fill="rgb(0,0,0)" fill-opacity="1.0"><path d="M -5771.792736171982,-20468.502453092617 l -13.089682679513317,57.349646970138565 l 456.82600268924944,95.21611558560835 l 22.252093395631164,-97.49279121818108 l -452.89873072585397,-112.4226183077044 Z" /></g></g></g><g fill="rgb(0,0,0)" fill-opacity="1.0" stroke-width="1.0e-2"><g fill="rgb(0,0,0)" fill-opacity="1.0"><g fill="rgb(0,0,0)" fill-opacity="1.0"><path d="M -6379.744896939122,-19983.676783167266 l 52.394965499198406,65.70120862920157 l 592.2336711173803,-504.53603251411187 l -73.35295169887831,-91.98169208088075 l -623.6706504168988,465.11530733658947 Z" /></g></g></g><g fill="rgb(0,0,0)" fill-opacity="1.0" stroke-width="1.0e-2"><g fill="rgb(0,0,0)" fill-opacity="1.0"><g fill="rgb(0,0,0)" fill-opacity="1.0"><path d="M -6379.744896939122,-18687.676783167266 h 120.05000000000018 l -36.01500000000033,-1296.0 h -168.0699999999997 l -36.01500000000033,1296.0 Z" /></g></g></g><g fill="rgb(0,0,0)" fill-opacity="1.0" stroke-width="1.0e-2"><g fill="rgb(0,0,0)" fill-opacity="1.0"><g fill="rgb(0,0,0)" fill-opacity="1.0"><path d="M -4690.988894808178,-17340.938811152402 l 106.9285010187732,-134.0840992432677 l -1720.834552436576,-1306.5127422418846 l -149.69990142628194,187.71773894057696 l 1656.6774518253114,1386.963201787843 Z" /></g></g></g><g fill="rgb(0,0,0)" fill-opacity="1.0" stroke-width="1.0e-2"><g fill="rgb(0,0,0)" fill-opacity="1.0"><g fill="rgb(0,0,0)" fill-opacity="1.0"><path d="M -3610.185053444374,-20468.502453092617 l -13.089682679512862,-57.349646970138565 l -452.89873072585397,112.4226183077044 l 22.252093395631164,97.49279121818108 l 456.8260026892485,-95.21611558560835 Z" /></g></g></g><g fill="rgb(0,0,0)" fill-opacity="1.0" stroke-width="1.0e-2"><g fill="rgb(0,0,0)" fill-opacity="1.0"><g fill="rgb(0,0,0)" fill-opacity="1.0"><path d="M -3610.185053444374,-20468.502453092617 h 58.82450000000017 l -8.824500000000171,-466.5600000000013 h -100.0 l -8.824500000000171,466.5600000000013 Z" /></g></g></g><g fill="rgb(0,0,0)" fill-opacity="1.0" stroke-width="1.0e-2"><g fill="rgb(0,0,0)" fill-opacity="1.0"><g fill="rgb(0,0,0)" fill-opacity="1.0"><path d="M -3002.2328926772343,-19983.676783167266 l 52.39496549919886,-65.70120862920157 l -623.6706504168992,-465.11530733658947 l -73.35295169887831,91.98169208088075 l 592.2336711173798,504.53603251411187 Z" /></g></g></g><g fill="rgb(0,0,0)" fill-opacity="1.0" stroke-width="1.0e-2"><g fill="rgb(0,0,0)" fill-opacity="1.0"><g fill="rgb(0,0,0)" fill-opacity="1.0"><path d="M -2394.280731910095,-20468.502453092617 h 58.82450000000017 l -8.824500000000171,-466.5600000000013 h -100.0 l -8.824500000000171,466.5600000000013 Z" /></g></g></g><g fill="rgb(0,0,0)" fill-opacity="1.0" stroke-width="1.0e-2"><g fill="rgb(0,0,0)" fill-opacity="1.0"><g fill="rgb(0,0,0)" fill-opacity="1.0"><path d="M -2394.280731910095,-20468.502453092617 l -13.089682679512862,57.349646970138565 l 456.82600268924875,95.21611558560835 l 22.252093395631164,-97.49279121818108 l -452.8987307258542,-112.4226183077044 Z" /></g></g></g><g fill="rgb(0,0,0)" fill-opacity="1.0" stroke-width="1.0e-2"><g fill="rgb(0,0,0)" fill-opacity="1.0"><g fill="rgb(0,0,0)" fill-opacity="1.0"><path d="M -3002.2328926772343,-19983.676783167266 l 52.39496549919886,65.70120862920157 l 592.2336711173798,-504.53603251411187 l -73.35295169887831,-91.98169208088075 l -623.6706504168992,465.11530733658947 Z" /></g></g></g><g fill="rgb(0,0,0)" fill-opacity="1.0" stroke-width="1.0e-2"><g fill="rgb(0,0,0)" fill-opacity="1.0"><g fill="rgb(0,0,0)" fill-opacity="1.0"><path d="M -3002.2328926772343,-18687.676783167266 h 120.05000000000018 l -36.01500000000033,-1296.0 h -168.0699999999997 l -36.01500000000033,1296.0 Z" /></g></g></g><g fill="rgb(0,0,0)" fill-opacity="1.0" stroke-width="1.0e-2"><g fill="rgb(0,0,0)" fill-opacity="1.0"><g fill="rgb(0,0,0)" fill-opacity="1.0"><path d="M -1130.774157722452,-18884.115322685233 h 58.824499999999944 l -8.824499999999944,-466.5600000000013 h -100.0 l -8.824499999999944,466.5600000000013 Z" /></g></g></g><g fill="rgb(0,0,0)" fill-opacity="1.0" stroke-width="1.0e-2"><g fill="rgb(0,0,0)" fill-opacity="1.0"><g fill="rgb(0,0,0)" fill-opacity="1.0"><path d="M -1130.774157722452,-18884.115322685233 l -13.08968267951309,57.349646970138565 l 456.82600268924887,95.21611558560835 l 22.252093395631164,-97.49279121818108 l -452.89873072585385,-112.4226183077044 Z" /></g></g></g><g fill="rgb(0,0,0)" fill-opacity="1.0" stroke-width="1.0e-2"><g fill="rgb(0,0,0)" fill-opacity="1.0"><g fill="rgb(0,0,0)" fill-opacity="1.0"><path d="M -1738.7263184895914,-18399.289652759882 l 52.39496549919863,65.70120862920157 l 592.23367111738,-504.53603251411187 l -73.35295169887831,-91.98169208088075 l -623.670650416899,465.11530733658947 Z" /></g></g></g><g fill="rgb(0,0,0)" fill-opacity="1.0" stroke-width="1.0e-2"><g fill="rgb(0,0,0)" fill-opacity="1.0"><g fill="rgb(0,0,0)" fill-opacity="1.0"><path d="M -1401.338322951778,-17698.696261078963 l -13.08968267951309,57.349646970138565 l 456.82600268924887,95.21611558560835 l 22.252093395631164,-97.49279121818108 l -452.89873072585385,-112.4226183077044 Z" /></g></g></g><g fill="rgb(0,0,0)" fill-opacity="1.0" stroke-width="1.0e-2"><g fill="rgb(0,0,0)" fill-opacity="1.0"><g fill="rgb(0,0,0)" fill-opacity="1.0"><path d="M -1401.338322951778,-17698.696261078963 l -52.999043169925926,-25.522994011720584 l -194.4821975478826,424.1848420643946 l 90.09688679024202,43.38837391175912 l 210.38339709749243,-416.52722795271256 Z" /></g></g></g><g fill="rgb(0,0,0)" fill-opacity="1.0" stroke-width="1.0e-2"><g fill="rgb(0,0,0)" fill-opacity="1.0"><g fill="rgb(0,0,0)" fill-opacity="1.0"><path d="M -1738.7263184895914,-18399.289652759882 l -75.71291881417983,36.46142001674525 l 360.1018711820675,689.6549656758943 l 105.9980863398514,-51.04598802344117 l -314.67411989355924,-711.5318176859437 Z" /></g></g></g><g fill="rgb(0,0,0)" fill-opacity="1.0" stroke-width="1.0e-2"><g fill="rgb(0,0,0)" fill-opacity="1.0"><g fill="rgb(0,0,0)" fill-opacity="1.0"><path d="M -3002.2328926772343,-18687.676783167266 l -26.71363812145546,117.04009585742824 l 1271.5206656240794,253.27510165015337 l 37.39909337003792,-163.8561342003959 l -1255.4924827512064,-323.49915916461396 Z" /></g></g></g><g fill="rgb(0,0,0)" fill-opacity="1.0" stroke-width="1.0e-2"><g fill="rgb(0,0,0)" fill-opacity="1.0"><g fill="rgb(0,0,0)" fill-opacity="1.0"><path d="M -4690.988894808178,-17340.938811152402 l 106.9285010187732,134.0840992432677 l 1656.6774518253114,-1386.963201787843 l -149.69990142628194,-187.71773894057696 l -1720.834552436576,1306.5127422418846 Z" /></g></g></g><g fill="rgb(0,0,0)" fill-opacity="1.0" stroke-width="1.0e-2"><g fill="rgb(0,0,0)" fill-opacity="1.0"><g fill="rgb(0,0,0)" fill-opacity="1.0"><path d="M -4690.988894808178,-13740.938811152402 h 245.0 l -73.5,-3600.0 h -343.0 l -73.5,3600.0 Z" /></g></g></g><g fill="rgb(0,0,0)" fill-opacity="1.0" stroke-width="1.0e-2"><g fill="rgb(0,0,0)" fill-opacity="1.0"><g fill="rgb(0,0,0)" fill-opacity="1.0"><path d="M 0.0,-10000.0 l 218.22143065055678,-273.64101886381104 l -4756.455324003345,-3658.8465054932585 l -305.5100029107798,383.09742640933473 l 4625.522465613011,3823.031116811546 Z" /></g></g></g><g fill="rgb(0,0,0)" fill-opacity="1.0" stroke-width="1.0e-2"><g fill="rgb(0,0,0)" fill-opacity="1.0"><g fill="rgb(0,0,0)" fill-opacity="1.0"><path d="M 1401.338322951778,-17698.696261078963 l -52.999043169925926,25.522994011720584 l 210.38339709749243,416.52722795271256 l 90.09688679024202,-43.38837391175912 l -194.4821975478826,-424.1848420643946 Z" /></g></g></g><g fill="rgb(0,0,0)" fill-opacity="1.0" stroke-width="1.0e-2"><g fill="rgb(0,0,0)" fill-opacity="1.0"><g fill="rgb(0,0,0)" fill-opacity="1.0"><path d="M 1401.338322951778,-17698.696261078963 l -13.08968267951309,-57.349646970138565 l -452.89873072585385,112.4226183077044 l 22.252093395631164,97.49279121818108 l 456.82600268924887,-95.21611558560835 Z" /></g></g></g><g fill="rgb(0,0,0)" fill-opacity="1.0" stroke-width="1.0e-2"><g fill="rgb(0,0,0)" fill-opacity="1.0"><g fill="rgb(0,0,0)" fill-opacity="1.0"><path d="M 1738.7263184895914,-18399.289652759882 l -75.71291881417983,-36.46142001674525 l -314.67411989355924,711.5318176859437 l 105.9980863398514,51.04598802344117 l 360.1018711820675,-689.6549656758943 Z" /></g></g></g><g fill="rgb(0,0,0)" fill-opacity="1.0" stroke-width="1.0e-2"><g fill="rgb(0,0,0)" fill-opacity="1.0"><g fill="rgb(0,0,0)" fill-opacity="1.0"><path d="M 1130.774157722452,-18884.115322685233 l -13.08968267951309,-57.349646970138565 l -452.89873072585385,112.4226183077044 l 22.252093395631164,97.49279121818108 l 456.82600268924887,-95.21611558560835 Z" /></g></g></g><g fill="rgb(0,0,0)" fill-opacity="1.0" stroke-width="1.0e-2"><g fill="rgb(0,0,0)" fill-opacity="1.0"><g fill="rgb(0,0,0)" fill-opacity="1.0"><path d="M 1130.774157722452,-18884.115322685233 h 58.824499999999944 l -8.824499999999944,-466.5600000000013 h -100.0 l -8.824499999999944,466.5600000000013 Z" /></g></g></g><g fill="rgb(0,0,0)" fill-opacity="1.0" stroke-width="1.0e-2"><g fill="rgb(0,0,0)" fill-opacity="1.0"><g fill="rgb(0,0,0)" fill-opacity="1.0"><path d="M 1738.7263184895914,-18399.289652759882 l 52.39496549919863,-65.70120862920157 l -623.670650416899,-465.11530733658947 l -73.35295169887831,91.98169208088075 l 592.23367111738,504.53603251411187 Z" /></g></g></g><g fill="rgb(0,0,0)" fill-opacity="1.0" stroke-width="1.0e-2"><g fill="rgb(0,0,0)" fill-opacity="1.0"><g fill="rgb(0,0,0)" fill-opacity="1.0"><path d="M 3002.2328926772343,-18687.676783167266 l -26.71363812145546,-117.04009585742824 l -1255.4924827512064,323.49915916461396 l 37.39909337003792,163.8561342003959 l 1271.5206656240794,-253.27510165015337 Z" /></g></g></g><g fill="rgb(0,0,0)" fill-opacity="1.0" stroke-width="1.0e-2"><g fill="rgb(0,0,0)" fill-opacity="1.0"><g fill="rgb(0,0,0)" fill-opacity="1.0"><path d="M 2394.280731910095,-20468.502453092617 l -13.089682679512862,-57.349646970138565 l -452.8987307258542,112.4226183077044 l 22.252093395631164,97.49279121818108 l 456.82600268924875,-95.21611558560835 Z" /></g></g></g><g fill="rgb(0,0,0)" fill-opacity="1.0" stroke-width="1.0e-2"><g fill="rgb(0,0,0)" fill-opacity="1.0"><g fill="rgb(0,0,0)" fill-opacity="1.0"><path d="M 2394.280731910095,-20468.502453092617 h 58.82450000000017 l -8.824500000000171,-466.5600000000013 h -100.0 l -8.824500000000171,466.5600000000013 Z" /></g></g></g><g fill="rgb(0,0,0)" fill-opacity="1.0" stroke-width="1.0e-2"><g fill="rgb(0,0,0)" fill-opacity="1.0"><g fill="rgb(0,0,0)" fill-opacity="1.0"><path d="M 3002.2328926772343,-19983.676783167266 l 52.39496549919886,-65.70120862920157 l -623.6706504168992,-465.11530733658947 l -73.35295169887831,91.98169208088075 l 592.2336711173798,504.53603251411187 Z" /></g></g></g><g fill="rgb(0,0,0)" fill-opacity="1.0" stroke-width="1.0e-2"><g fill="rgb(0,0,0)" fill-opacity="1.0"><g fill="rgb(0,0,0)" fill-opacity="1.0"><path d="M 3610.185053444374,-20468.502453092617 h 58.82450000000017 l -8.824500000000171,-466.5600000000013 h -100.0 l -8.824500000000171,466.5600000000013 Z" /></g></g></g><g fill="rgb(0,0,0)" fill-opacity="1.0" stroke-width="1.0e-2"><g fill="rgb(0,0,0)" fill-opacity="1.0"><g fill="rgb(0,0,0)" fill-opacity="1.0"><path d="M 3610.185053444374,-20468.502453092617 l -13.089682679512862,57.349646970138565 l 456.8260026892485,95.21611558560835 l 22.252093395631164,-97.49279121818108 l -452.89873072585397,-112.4226183077044 Z" /></g></g></g><g fill="rgb(0,0,0)" fill-opacity="1.0" stroke-width="1.0e-2"><g fill="rgb(0,0,0)" fill-opacity="1.0"><g fill="rgb(0,0,0)" fill-opacity="1.0"><path d="M 3002.2328926772343,-19983.676783167266 l 52.39496549919886,65.70120862920157 l 592.2336711173798,-504.53603251411187 l -73.35295169887831,-91.98169208088075 l -623.6706504168992,465.11530733658947 Z" /></g></g></g><g fill="rgb(0,0,0)" fill-opacity="1.0" stroke-width="1.0e-2"><g fill="rgb(0,0,0)" fill-opacity="1.0"><g fill="rgb(0,0,0)" fill-opacity="1.0"><path d="M 3002.2328926772343,-18687.676783167266 h 120.05000000000018 l -36.01500000000033,-1296.0 h -168.0699999999997 l -36.01500000000033,1296.0 Z" /></g></g></g><g fill="rgb(0,0,0)" fill-opacity="1.0" stroke-width="1.0e-2"><g fill="rgb(0,0,0)" fill-opacity="1.0"><g fill="rgb(0,0,0)" fill-opacity="1.0"><path d="M 4690.988894808178,-17340.938811152402 l 106.9285010187732,-134.0840992432677 l -1720.834552436576,-1306.5127422418846 l -149.69990142628194,187.71773894057696 l 1656.6774518253114,1386.963201787843 Z" /></g></g></g><g fill="rgb(0,0,0)" fill-opacity="1.0" stroke-width="1.0e-2"><g fill="rgb(0,0,0)" fill-opacity="1.0"><g fill="rgb(0,0,0)" fill-opacity="1.0"><path d="M 5771.792736171982,-20468.502453092617 l -13.089682679513317,-57.349646970138565 l -452.89873072585397,112.4226183077044 l 22.252093395631164,97.49279121818108 l 456.82600268924944,-95.21611558560835 Z" /></g></g></g><g fill="rgb(0,0,0)" fill-opacity="1.0" stroke-width="1.0e-2"><g fill="rgb(0,0,0)" fill-opacity="1.0"><g fill="rgb(0,0,0)" fill-opacity="1.0"><path d="M 5771.792736171982,-20468.502453092617 h 58.824499999999716 l -8.824499999999716,-466.5600000000013 h -100.0 l -8.824499999999716,466.5600000000013 Z" /></g></g></g><g fill="rgb(0,0,0)" fill-opacity="1.0" stroke-width="1.0e-2"><g fill="rgb(0,0,0)" fill-opacity="1.0"><g fill="rgb(0,0,0)" fill-opacity="1.0"><path d="M 6379.744896939122,-19983.676783167266 l 52.394965499198406,-65.70120862920157 l -623.6706504168988,-465.11530733658947 l -73.35295169887831,91.98169208088075 l 592.2336711173803,504.53603251411187 Z" /></g></g></g><g fill="rgb(0,0,0)" fill-opacity="1.0" stroke-width="1.0e-2"><g fill="rgb(0,0,0)" fill-opacity="1.0"><g fill="rgb(0,0,0)" fill-opacity="1.0"><path d="M 6987.697057706261,-20468.502453092617 h 58.824499999999716 l -8.824499999999716,-466.5600000000013 h -100.0 l -8.824499999999716,466.5600000000013 Z" /></g></g></g><g fill="rgb(0,0,0)" fill-opacity="1.0" stroke-width="1.0e-2"><g fill="rgb(0,0,0)" fill-opacity="1.0"><g fill="rgb(0,0,0)" fill-opacity="1.0"><path d="M 6987.697057706261,-20468.502453092617 l -13.089682679513317,57.349646970138565 l 456.82600268924944,95.21611558560835 l 22.252093395631164,-97.49279121818108 l -452.89873072585397,-112.4226183077044 Z" /></g></g></g><g fill="rgb(0,0,0)" fill-opacity="1.0" stroke-width="1.0e-2"><g fill="rgb(0,0,0)" fill-opacity="1.0"><g fill="rgb(0,0,0)" fill-opacity="1.0"><path d="M 6379.744896939122,-19983.676783167266 l 52.394965499198406,65.70120862920157 l 592.2336711173803,-504.53603251411187 l -73.35295169887831,-91.98169208088075 l -623.6706504168988,465.11530733658947 Z" /></g></g></g><g fill="rgb(0,0,0)" fill-opacity="1.0" stroke-width="1.0e-2"><g fill="rgb(0,0,0)" fill-opacity="1.0"><g fill="rgb(0,0,0)" fill-opacity="1.0"><path d="M 6379.744896939122,-18687.676783167266 h 120.05000000000018 l -36.01500000000033,-1296.0 h -168.0699999999997 l -36.01500000000033,1296.0 Z" /></g></g></g><g fill="rgb(0,0,0)" fill-opacity="1.0" stroke-width="1.0e-2"><g fill="rgb(0,0,0)" fill-opacity="1.0"><g fill="rgb(0,0,0)" fill-opacity="1.0"><path d="M 8251.203631893904,-18884.115322685233 h 58.824500000000626 l -8.824500000000626,-466.5600000000013 h -100.0 l -8.824500000000626,466.5600000000013 Z" /></g></g></g><g fill="rgb(0,0,0)" fill-opacity="1.0" stroke-width="1.0e-2"><g fill="rgb(0,0,0)" fill-opacity="1.0"><g fill="rgb(0,0,0)" fill-opacity="1.0"><path d="M 8251.203631893904,-18884.115322685233 l -13.089682679512407,57.349646970138565 l 456.82600268924944,95.21611558560835 l 22.252093395629345,-97.49279121818108 l -452.89873072585397,-112.4226183077044 Z" /></g></g></g><g fill="rgb(0,0,0)" fill-opacity="1.0" stroke-width="1.0e-2"><g fill="rgb(0,0,0)" fill-opacity="1.0"><g fill="rgb(0,0,0)" fill-opacity="1.0"><path d="M 7643.251471126765,-18399.289652759882 l 52.394965499198406,65.70120862920157 l 592.2336711173803,-504.53603251411187 l -73.35295169887831,-91.98169208088075 l -623.6706504168988,465.11530733658947 Z" /></g></g></g><g fill="rgb(0,0,0)" fill-opacity="1.0" stroke-width="1.0e-2"><g fill="rgb(0,0,0)" fill-opacity="1.0"><g fill="rgb(0,0,0)" fill-opacity="1.0"><path d="M 7980.639466664578,-17698.696261078963 l -13.089682679513317,57.349646970138565 l 456.82600268924944,95.21611558560835 l 22.252093395629345,-97.49279121818108 l -452.89873072585215,-112.4226183077044 Z" /></g></g></g><g fill="rgb(0,0,0)" fill-opacity="1.0" stroke-width="1.0e-2"><g fill="rgb(0,0,0)" fill-opacity="1.0"><g fill="rgb(0,0,0)" fill-opacity="1.0"><path d="M 7980.639466664578,-17698.696261078963 l -52.99904316992615,-25.522994011720584 l -194.4821975478817,424.1848420643946 l 90.09688679024111,43.38837391175912 l 210.3833970974929,-416.52722795271256 Z" /></g></g></g><g fill="rgb(0,0,0)" fill-opacity="1.0" stroke-width="1.0e-2"><g fill="rgb(0,0,0)" fill-opacity="1.0"><g fill="rgb(0,0,0)" fill-opacity="1.0"><path d="M 7643.251471126765,-18399.289652759882 l -75.71291881417983,36.46142001674525 l 360.10187118206704,689.6549656758943 l 105.9980863398523,-51.04598802344117 l -314.6741198935597,-711.5318176859437 Z" /></g></g></g><g fill="rgb(0,0,0)" fill-opacity="1.0" stroke-width="1.0e-2"><g fill="rgb(0,0,0)" fill-opacity="1.0"><g fill="rgb(0,0,0)" fill-opacity="1.0"><path d="M 6379.744896939122,-18687.676783167266 l -26.713638121455915,117.04009585742824 l 1271.5206656240807,253.27510165015337 l 37.39909337003701,-163.8561342003959 l -1255.492482751206,-323.49915916461396 Z" /></g></g></g><g fill="rgb(0,0,0)" fill-opacity="1.0" stroke-width="1.0e-2"><g fill="rgb(0,0,0)" fill-opacity="1.0"><g fill="rgb(0,0,0)" fill-opacity="1.0"><path d="M 4690.988894808178,-17340.938811152402 l 106.9285010187732,134.0840992432677 l 1656.6774518253114,-1386.963201787843 l -149.69990142628194,-187.71773894057696 l -1720.834552436576,1306.5127422418846 Z" /></g></g></g><g fill="rgb(0,0,0)" fill-opacity="1.0" stroke-width="1.0e-2"><g fill="rgb(0,0,0)" fill-opacity="1.0"><g fill="rgb(0,0,0)" fill-opacity="1.0"><path d="M 4690.988894808178,-13740.938811152402 h 245.0 l -73.5,-3600.0 h -343.0 l -73.5,3600.0 Z" /></g></g></g><g fill="rgb(0,0,0)" fill-opacity="1.0" stroke-width="1.0e-2"><g fill="rgb(0,0,0)" fill-opacity="1.0"><g fill="rgb(0,0,0)" fill-opacity="1.0"><path d="M 9281.533220026547,-16067.427090849887 l -13.089682679512407,-57.349646970140384 l -452.8987307258558,112.42261830770803 l 22.252093395632983,97.49279121818108 l 456.8260026892476,-95.21611558560835 Z" /></g></g></g><g fill="rgb(0,0,0)" fill-opacity="1.0" stroke-width="1.0e-2"><g fill="rgb(0,0,0)" fill-opacity="1.0"><g fill="rgb(0,0,0)" fill-opacity="1.0"><path d="M 9281.533220026547,-16067.427090849887 h 58.824500000000626 l -8.824500000000626,-466.5600000000013 h -100.0 l -8.824500000000626,466.5600000000013 Z" /></g></g></g><g fill="rgb(0,0,0)" fill-opacity="1.0" stroke-width="1.0e-2"><g fill="rgb(0,0,0)" fill-opacity="1.0"><g fill="rgb(0,0,0)" fill-opacity="1.0"><path d="M 9889.485380793687,-15582.601420924537 l 52.394965499199316,-65.70120862920157 l -623.6706504168997,-465.11530733658947 l -73.35295169887831,91.98169208088075 l 592.2336711173793,504.53603251411187 Z" /></g></g></g><g fill="rgb(0,0,0)" fill-opacity="1.0" stroke-width="1.0e-2"><g fill="rgb(0,0,0)" fill-opacity="1.0"><g fill="rgb(0,0,0)" fill-opacity="1.0"><path d="M 10497.437541560827,-16067.427090849887 h 58.824500000000626 l -8.824500000000626,-466.5600000000013 h -100.0 l -8.824500000000626,466.5600000000013 Z" /></g></g></g><g fill="rgb(0,0,0)" fill-opacity="1.0" stroke-width="1.0e-2"><g fill="rgb(0,0,0)" fill-opacity="1.0"><g fill="rgb(0,0,0)" fill-opacity="1.0"><path d="M 10497.437541560827,-16067.427090849887 l -13.089682679512407,57.349646970140384 l 456.8260026892476,95.21611558560835 l 22.252093395632983,-97.49279121818108 l -452.8987307258558,-112.42261830770803 Z" /></g></g></g><g fill="rgb(0,0,0)" fill-opacity="1.0" stroke-width="1.0e-2"><g fill="rgb(0,0,0)" fill-opacity="1.0"><g fill="rgb(0,0,0)" fill-opacity="1.0"><path d="M 9889.485380793687,-15582.601420924537 l 52.394965499199316,65.70120862920157 l 592.2336711173793,-504.53603251411187 l -73.35295169887831,-91.98169208088075 l -623.6706504168997,465.11530733658947 Z" /></g></g></g><g fill="rgb(0,0,0)" fill-opacity="1.0" stroke-width="1.0e-2"><g fill="rgb(0,0,0)" fill-opacity="1.0"><g fill="rgb(0,0,0)" fill-opacity="1.0"><path d="M 9889.485380793687,-14286.601420924537 h 120.04999999999927 l -36.01499999999942,-1296.0 h -168.0699999999997 l -36.01499999999942,1296.0 Z" /></g></g></g><g fill="rgb(0,0,0)" fill-opacity="1.0" stroke-width="1.0e-2"><g fill="rgb(0,0,0)" fill-opacity="1.0"><g fill="rgb(0,0,0)" fill-opacity="1.0"><path d="M 11760.94411574847,-14483.039960442504 h 58.824500000000626 l -8.824500000000626,-466.5599999999995 h -100.0 l -8.824500000000626,466.5599999999995 Z" /></g></g></g><g fill="rgb(0,0,0)" fill-opacity="1.0" stroke-width="1.0e-2"><g fill="rgb(0,0,0)" fill-opacity="1.0"><g fill="rgb(0,0,0)" fill-opacity="1.0"><path d="M 11760.94411574847,-14483.039960442504 l -13.089682679512407,57.349646970140384 l 456.8260026892476,95.21611558560835 l 22.252093395632983,-97.49279121818108 l -452.8987307258558,-112.42261830770803 Z" /></g></g></g><g fill="rgb(0,0,0)" fill-opacity="1.0" stroke-width="1.0e-2"><g fill="rgb(0,0,0)" fill-opacity="1.0"><g fill="rgb(0,0,0)" fill-opacity="1.0"><path d="M 11152.991954981331,-13998.214290517153 l 52.394965499199316,65.70120862920157 l 592.2336711173793,-504.53603251411187 l -73.35295169887831,-91.98169208088075 l -623.6706504168997,465.11530733658947 Z" /></g></g></g><g fill="rgb(0,0,0)" fill-opacity="1.0" stroke-width="1.0e-2"><g fill="rgb(0,0,0)" fill-opacity="1.0"><g fill="rgb(0,0,0)" fill-opacity="1.0"><path d="M 11490.379950519145,-13297.620898836232 l -13.089682679512407,57.349646970140384 l 456.8260026892476,95.21611558560835 l 22.252093395632983,-97.49279121818108 l -452.8987307258558,-112.42261830770803 Z" /></g></g></g><g fill="rgb(0,0,0)" fill-opacity="1.0" stroke-width="1.0e-2"><g fill="rgb(0,0,0)" fill-opacity="1.0"><g fill="rgb(0,0,0)" fill-opacity="1.0"><path d="M 11490.379950519145,-13297.620898836232 l -52.99904316992615,-25.522994011720584 l -194.4821975478826,424.1848420643946 l 90.09688679024111,43.38837391175548 l 210.3833970974938,-416.5272279527089 Z" /></g></g></g><g fill="rgb(0,0,0)" fill-opacity="1.0" stroke-width="1.0e-2"><g fill="rgb(0,0,0)" fill-opacity="1.0"><g fill="rgb(0,0,0)" fill-opacity="1.0"><path d="M 11152.991954981331,-13998.214290517153 l -75.71291881417892,36.46142001674343 l 360.10187118206704,689.654965675898 l 105.9980863398523,-51.04598802344117 l -314.6741198935615,-711.5318176859437 Z" /></g></g></g><g fill="rgb(0,0,0)" fill-opacity="1.0" stroke-width="1.0e-2"><g fill="rgb(0,0,0)" fill-opacity="1.0"><g fill="rgb(0,0,0)" fill-opacity="1.0"><path d="M 9889.485380793687,-14286.601420924537 l -26.713638121455006,117.04009585742824 l 1271.5206656240807,253.2751016501552 l 37.39909337003701,-163.85613420039954 l -1255.4924827512077,-323.49915916461214 Z" /></g></g></g><g fill="rgb(0,0,0)" fill-opacity="1.0" stroke-width="1.0e-2"><g fill="rgb(0,0,0)" fill-opacity="1.0"><g fill="rgb(0,0,0)" fill-opacity="1.0"><path d="M 8200.729378662743,-12939.863448909671 l 106.9285010187723,134.0840992432677 l 1656.6774518253133,-1386.9632017878466 l -149.69990142628376,-187.71773894057333 l -1720.834552436575,1306.5127422418846 Z" /></g></g></g><g fill="rgb(0,0,0)" fill-opacity="1.0" stroke-width="1.0e-2"><g fill="rgb(0,0,0)" fill-opacity="1.0"><g fill="rgb(0,0,0)" fill-opacity="1.0"><path d="M 11009.376990111452,-11190.209233758413 h 58.824500000000626 l -8.824500000000626,-466.5599999999995 h -100.0 l -8.824500000000626,466.5599999999995 Z" /></g></g></g><g fill="rgb(0,0,0)" fill-opacity="1.0" stroke-width="1.0e-2"><g fill="rgb(0,0,0)" fill-opacity="1.0"><g fill="rgb(0,0,0)" fill-opacity="1.0"><path d="M 11009.376990111452,-11190.209233758413 l -13.089682679512407,57.349646970140384 l 456.8260026892476,95.21611558560835 l 22.252093395632983,-97.49279121818108 l -452.8987307258558,-112.42261830770803 Z" /></g></g></g><g fill="rgb(0,0,0)" fill-opacity="1.0" stroke-width="1.0e-2"><g fill="rgb(0,0,0)" fill-opacity="1.0"><g fill="rgb(0,0,0)" fill-opacity="1.0"><path d="M 10401.424829344312,-10705.383563833062 l 52.394965499199316,65.70120862920157 l 592.2336711173793,-504.53603251411187 l -73.35295169887831,-91.98169208088075 l -623.6706504168997,465.11530733658947 Z" /></g></g></g><g fill="rgb(0,0,0)" fill-opacity="1.0" stroke-width="1.0e-2"><g fill="rgb(0,0,0)" fill-opacity="1.0"><g fill="rgb(0,0,0)" fill-opacity="1.0"><path d="M 10738.812824882127,-10004.790172152141 l -13.089682679512407,57.349646970140384 l 456.8260026892476,95.21611558560835 l 22.252093395632983,-97.49279121818108 l -452.8987307258558,-112.42261830770803 Z" /></g></g></g><g fill="rgb(0,0,0)" fill-opacity="1.0" stroke-width="1.0e-2"><g fill="rgb(0,0,0)" fill-opacity="1.0"><g fill="rgb(0,0,0)" fill-opacity="1.0"><path d="M 10738.812824882127,-10004.790172152141 l -52.99904316992615,-25.522994011720584 l -194.4821975478826,424.1848420643946 l 90.09688679024111,43.38837391175548 l 210.3833970974938,-416.5272279527089 Z" /></g></g></g><g fill="rgb(0,0,0)" fill-opacity="1.0" stroke-width="1.0e-2"><g fill="rgb(0,0,0)" fill-opacity="1.0"><g fill="rgb(0,0,0)" fill-opacity="1.0"><path d="M 10401.424829344312,-10705.383563833062 l -75.71291881417892,36.46142001674343 l 360.10187118206704,689.654965675898 l 105.9980863398523,-51.04598802344117 l -314.6741198935615,-711.5318176859437 Z" /></g></g></g><g fill="rgb(0,0,0)" fill-opacity="1.0" stroke-width="1.0e-2"><g fill="rgb(0,0,0)" fill-opacity="1.0"><g fill="rgb(0,0,0)" fill-opacity="1.0"><path d="M 9137.91825515667,-10993.770694240446 l -26.713638121455006,117.04009585742824 l 1271.520665624079,253.2751016501552 l 37.39909337003701,-163.85613420039954 l -1255.492482751206,-323.49915916461214 Z" /></g></g></g><g fill="rgb(0,0,0)" fill-opacity="1.0" stroke-width="1.0e-2"><g fill="rgb(0,0,0)" fill-opacity="1.0"><g fill="rgb(0,0,0)" fill-opacity="1.0"><path d="M 8912.992924798127,-9125.52164975799 l -13.089682679512407,57.349646970140384 l 456.8260026892476,95.21611558560835 l 22.252093395632983,-97.49279121818108 l -452.8987307258558,-112.42261830770803 Z" /></g></g></g><g fill="rgb(0,0,0)" fill-opacity="1.0" stroke-width="1.0e-2"><g fill="rgb(0,0,0)" fill-opacity="1.0"><g fill="rgb(0,0,0)" fill-opacity="1.0"><path d="M 8912.992924798127,-9125.52164975799 l -52.99904316992615,-25.522994011720584 l -194.4821975478826,424.1848420643946 l 90.09688679024111,43.38837391175548 l 210.3833970974938,-416.5272279527089 Z" /></g></g></g><g fill="rgb(0,0,0)" fill-opacity="1.0" stroke-width="1.0e-2"><g fill="rgb(0,0,0)" fill-opacity="1.0"><g fill="rgb(0,0,0)" fill-opacity="1.0"><path d="M 8575.604929260315,-9826.11504143891 l -75.71291881417892,36.46142001674343 l 360.1018711820652,689.654965675898 l 105.9980863398523,-51.04598802344117 l -314.6741198935597,-711.5318176859437 Z" /></g></g></g><g fill="rgb(0,0,0)" fill-opacity="1.0" stroke-width="1.0e-2"><g fill="rgb(0,0,0)" fill-opacity="1.0"><g fill="rgb(0,0,0)" fill-opacity="1.0"><path d="M 7817.500984747729,-9653.08276319448 l -52.99904316992615,-25.522994011720584 l -194.4821975478817,424.1848420643946 l 90.09688679024111,43.38837391175548 l 210.3833970974929,-416.5272279527089 Z" /></g></g></g><g fill="rgb(0,0,0)" fill-opacity="1.0" stroke-width="1.0e-2"><g fill="rgb(0,0,0)" fill-opacity="1.0"><g fill="rgb(0,0,0)" fill-opacity="1.0"><path d="M 7817.500984747729,-9653.08276319448 l 36.67647584943916,-45.990846040440374 l -370.27328221678636,-283.99613003817285 l -62.3489801858741,78.1831482468042 l 359.26931070378214,297.7946738722494 Z" /></g></g></g><g fill="rgb(0,0,0)" fill-opacity="1.0" stroke-width="1.0e-2"><g fill="rgb(0,0,0)" fill-opacity="1.0"><g fill="rgb(0,0,0)" fill-opacity="1.0"><path d="M 8575.604929260315,-9826.11504143891 l -18.699546685018504,-81.92806710019977 l -752.494080507081,197.6106983744903 l 26.179365359026633,114.69929394028077 l 763.7138085180914,-148.45385811437154 Z" /></g></g></g><g fill="rgb(0,0,0)" fill-opacity="1.0" stroke-width="1.0e-2"><g fill="rgb(0,0,0)" fill-opacity="1.0"><g fill="rgb(0,0,0)" fill-opacity="1.0"><path d="M 9137.91825515667,-10993.770694240446 l -108.16131259168469,-52.087742881063605 l -529.8649321188495,1183.2819756658555 l 151.42583762835784,72.92284003348686 l 594.7617196738611,-1152.0293299372152 Z" /></g></g></g><g fill="rgb(0,0,0)" fill-opacity="1.0" stroke-width="1.0e-2"><g fill="rgb(0,0,0)" fill-opacity="1.0"><g fill="rgb(0,0,0)" fill-opacity="1.0"><path d="M 8200.729378662743,-12939.863448909671 l -154.5161608452645,74.411061258661 l 983.5437247475065,1923.7694362916282 l 216.32262518336938,-104.17548576212721 l -890.834028240346,-1968.416073046823 Z" /></g></g></g><g fill="rgb(0,0,0)" fill-opacity="1.0" stroke-width="1.0e-2"><g fill="rgb(0,0,0)" fill-opacity="1.0"><g fill="rgb(0,0,0)" fill-opacity="1.0"><path d="M 4690.988894808178,-13740.938811152402 l -54.51762881929699,238.85733848454765 l 3526.0957725003545,729.4181606973652 l 76.32468034701651,-334.4002738783638 l -3493.385195208777,-872.7325637880967 Z" /></g></g></g><g fill="rgb(0,0,0)" fill-opacity="1.0" stroke-width="1.0e-2"><g fill="rgb(0,0,0)" fill-opacity="1.0"><g fill="rgb(0,0,0)" fill-opacity="1.0"><path d="M 0.0,-10000.0 l 218.22143065055678,273.64101886381104 l 4625.522465613011,-3823.031116811546 l -305.5100029107798,-383.09742640933473 l -4756.455324003345,3658.8465054932585 Z" /></g></g></g><g fill="rgb(0,0,0)" fill-opacity="1.0" stroke-width="1.0e-2"><g fill="rgb(0,0,0)" fill-opacity="1.0"><g fill="rgb(0,0,0)" fill-opacity="1.0"><path d="M 0.0,0.0 l 500.0,3.061616997868384e-14 l -150.0,-10000.0 h -700.0 l -150.0,10000.0 Z" /></g></g></g></g></g></g></g></svg>