<?xml version="1.0" encoding="UTF-8"?>
<!DOCTYPE svg PUBLIC "-//W3C//DTD SVG 1.1//EN"
    "http://www.w3.org/Graphics/SVG/1.1/DTD/svg11.dtd">
<svg xmlns="http://www.w3.org/2000/svg" xmlns:xlink="http://www.w3.org/1999/xlink" version="1.1" width="400.0" height="581.8965661358599" font-size="1" viewBox="0 0 400 582"><g><g fill="rgb(0,0,0)" fill-opacity="0.0"><g stroke="rgb(0,0,0)" stroke-opacity="1.0" stroke-width="1.0e-2" stroke-linecap="butt" stroke-linejoin="miter" font-size="1.0em" stroke-miterlimit="10.0"><g transform="matrix(281.10945223954565,0.0,0.0,281.10945223954565,200.0,525.6746756879506)"><g><g fill="rgb(0,0,0)" fill-opacity="1.0" font-style="italic"><g fill="rgb(0,0,0)" fill-opacity="1.0"><text transform="matrix(7.5e-2,0.0,0.0,7.5e-2,0.44,-1.16)" dominant-baseline="text-before-edge" text-anchor="start" stroke="none">r</text></g></g><g fill="rgb(0,0,0)" fill-opacity="1.0" font-size="1.0em" font-weight="bold"><g fill="rgb(0,0,0)" fill-opacity="1.0"><text transform="matrix(0.15,0.0,0.0,0.15,0.4,-1.18)" dominant-baseline="middle" text-anchor="middle" stroke="none">w</text></g></g></g><g><g fill="rgb(0,0,0)" fill-opacity="1.0" font-style="italic"><g fill="rgb(0,0,0)" fill-opacity="1.0"><text transform="matrix(7.5e-2,0.0,0.0,7.5e-2,-0.36000000000000004,-1.16)" dominant-baseline="text-before-edge" text-anchor="start" stroke="none">l</text></g></g><g fill="rgb(0,0,0)" fill-opacity="1.0" font-size="1.0em" font-weight="bold"><g fill="rgb(0,0,0)" fill-opacity="1.0"><text transform="matrix(0.15,0.0,0.0,0.15,-0.4,-1.18)" dominant-baseline="middle" text-anchor="middle" stroke="none">w</text></g></g></g><g fill="rgb(0,0,0)" fill-opacity="1.0" font-size="1.0em" font-weight="bold"><g fill="rgb(0,0,0)" fill-opacity="1.0"><text transform="matrix(0.15,0.0,0.0,0.15,0.1,-0.5)" dominant-baseline="middle" text-anchor="middle" stroke="none">v</text></g></g><g fill="rgb(0,0,0)" fill-opacity="1.0" font-size="1.0em" font-style="italic"><g fill="rgb(0,0,0)" fill-opacity="1.0"><text transform="matrix(0.15,0.0,0.0,0.15,0.1,-0.95)" dominant-baseline="middle" text-anchor="middle" stroke="none">q</text></g></g><g fill="rgb(0,0,0)" fill-opacity="1.0" font-size="1.0em" font-style="italic"><g fill="rgb(0,0,0)" fill-opacity="1.0"><text transform="matrix(0.15,0.0,0.0,0.15,0.1,0.0)" dominant-baseline="middle" text-anchor="middle" stroke="none">p</text></g></g><g fill="rgb(0,0,0)" fill-opacity="1.0" font-size="1.0em" font-style="italic"><g fill="rgb(0,0,0)" fill-opacity="1.0"><text transform="matrix(0.15,0.0,0.0,0.15,0.15,-1.25)" dominant-baseline="middle" text-anchor="middle" stroke="none">θ</text></g></g><g fill="rgb(0,0,0)" fill-opacity="1.0" font-size="1.0em" font-style="italic"><g fill="rgb(0,0,0)" fill-opacity="1.0"><text transform="matrix(0.15,0.0,0.0,0.15,-0.15,-1.25)" dominant-baseline="middle" text-anchor="middle" stroke="none">θ</text></g></g><g stroke-dasharray="2.0e-2,2.0e-2" stroke-dashoffset="0.0"><path d="M 0.0,-1.0 v -0.7 " /></g><g><g><g><path d="M 0.0,0.0 l 5.724117881056231e-17,-0.9348193920143482 " /></g><g stroke-width="0.0"><g fill="rgb(0,0,0)" fill-opacity="1.0"><g fill="rgb(0,0,0)" fill-opacity="1.0"><path d="" /></g></g><g fill="rgb(0,0,0)" fill-opacity="1.0"><g fill="rgb(0,0,0)" fill-opacity="1.0"><path d="" /></g></g></g><g stroke-width="0.0"><g fill="rgb(0,0,0)" fill-opacity="1.0"><g fill="rgb(0,0,0)" fill-opacity="1.0"><path d="M 6.123233995736766e-17,-1.0 l 2.9389262614623657e-2,9.045084971874737e-2 l -2.938926261462366e-2,-3.0450849718747373e-2 l -2.9389262614623657e-2,3.0450849718747373e-2 Z" /></g></g><g fill="rgb(0,0,0)" fill-opacity="1.0"><g fill="rgb(0,0,0)" fill-opacity="1.0"><path d="M 5.75583995599256e-17,-0.94 l 5.000000000000001e-3,5.180607985651786e-3 l -9.999999999999998e-3,-6.123233995736765e-19 l 4.9999999999999975e-3,-5.180607985651786e-3 Z" /></g></g></g></g></g><g fill="rgb(0,0,255)" fill-opacity="1.0" stroke-width="0.0"><g fill="rgb(0,0,255)" fill-opacity="1.0"><g fill="rgb(0,0,255)" fill-opacity="1.0"><path d="M 2.0e-2,0.0 c 0.0,-1.104569499661587e-2 -8.954305003384129e-3,-2.0e-2 -1.9999999999999997e-2 -2.0e-2c -1.104569499661587e-2,-6.763537510981779e-19 -2.0e-2,8.954305003384127e-3 -2.0e-2 1.9999999999999993e-2c -1.3527075021963559e-18,1.104569499661587e-2 8.954305003384127e-3,2.0e-2 1.999999999999999e-2 2.0e-2c 1.104569499661587e-2,2.0290612532945338e-18 2.0e-2,-8.954305003384126e-3 2.0000000000000004e-2 -1.9999999999999993e-2Z" /></g></g></g><g><path d="M 0.15636629649360595,-1.1246979603717466 c -6.886878184832033e-2,-8.635872094093883e-2 -0.19470553592441384,-0.10053711797017957 -0.28106425686535264 -3.166833612185924e-2c -1.170845713856137e-2,9.337182992872912e-3 -2.233115312898635e-2,1.9959878983297874e-2 -3.166833612185926e-2 3.166833612185926e-2" /></g><g><g><g><path d="M 0.0,-1.0 l 0.4963217863580311,-0.3958034169431077 " /></g><g stroke-width="0.0"><g fill="rgb(0,0,0)" fill-opacity="1.0"><g fill="rgb(0,0,0)" fill-opacity="1.0"><path d="" /></g></g><g fill="rgb(0,0,0)" fill-opacity="1.0"><g fill="rgb(0,0,0)" fill-opacity="1.0"><path d="" /></g></g></g><g stroke-width="0.0"><g fill="rgb(0,0,0)" fill-opacity="1.0"><g fill="rgb(0,0,0)" fill-opacity="1.0"><path d="M 0.5472820377276207,-1.4364428613011135 l -5.239341640173523e-2,7.937263312772935e-2 l 5.483527453653443e-3,-4.196324501620534e-2 l -4.213133850238544e-2,-3.991656501061577e-3 Z" /></g></g><g fill="rgb(0,0,0)" fill-opacity="1.0"><g fill="rgb(0,0,0)" fill-opacity="1.0"><path d="M 0.500372148779539,-1.3990334731895895 l -9.329134122141795e-4,7.139213658821955e-3 l -6.2348980185873365e-3,-7.818314824680296e-3 l 7.167811430801516e-3,6.791011658583406e-4 Z" /></g></g></g></g></g><g><g><g><path d="M 0.0,-1.0 l -0.49632178635803115,-0.3958034169431077 " /></g><g stroke-width="0.0"><g fill="rgb(0,0,0)" fill-opacity="1.0"><g fill="rgb(0,0,0)" fill-opacity="1.0"><path d="" /></g></g><g fill="rgb(0,0,0)" fill-opacity="1.0"><g fill="rgb(0,0,0)" fill-opacity="1.0"><path d="" /></g></g></g><g stroke-width="0.0"><g fill="rgb(0,0,0)" fill-opacity="1.0"><g fill="rgb(0,0,0)" fill-opacity="1.0"><path d="M -0.5472820377276207,-1.4364428613011135 l 8.904122745046722e-2,3.341773161046242e-2 l -4.2131338502385436e-2,3.991656501061591e-3 l 5.483527453653457e-3,4.1963245016205325e-2 Z" /></g></g><g fill="rgb(0,0,0)" fill-opacity="1.0"><g fill="rgb(0,0,0)" fill-opacity="1.0"><path d="M -0.500372148779539,-1.3990334731895895 l 7.167811430801517e-3,-6.791011658583436e-4 l -6.234898018587335e-3,7.818314824680296e-3 l -9.329134122141821e-4,-7.139213658821952e-3 Z" /></g></g></g></g></g><g fill="rgb(0,0,255)" fill-opacity="1.0" stroke-width="0.0"><g fill="rgb(0,0,255)" fill-opacity="1.0"><g fill="rgb(0,0,255)" fill-opacity="1.0"><path d="M 2.0e-2,-1.0 c 0.0,-1.104569499661587e-2 -8.954305003384129e-3,-2.0e-2 -1.9999999999999997e-2 -2.0e-2c -1.104569499661587e-2,-6.763537510981779e-19 -2.0e-2,8.954305003384127e-3 -2.0e-2 1.9999999999999993e-2c -1.3527075021963559e-18,1.104569499661587e-2 8.954305003384127e-3,2.0e-2 1.999999999999999e-2 2.0e-2c 1.104569499661587e-2,2.0290612532945338e-18 2.0e-2,-8.954305003384126e-3 2.0000000000000004e-2 -1.9999999999999993e-2Z" /></g></g></g><g stroke-width="0.0"><path d="M 0.0,0.0 l 0.711466649045907,-0.5673757196914475 " /></g><g stroke-width="0.0"><path d="M 0.0,0.0 l -0.711466649045907,-0.5673757196914475 " /></g><g stroke-width="0.0"><path d="M 0.0,0.0 v 0.2 " /></g><g stroke-width="0.0"><path d="M 0.0,0.0 v -1.87 " /></g></g></g></g></g></svg>